<svg xmlns="http://www.w3.org/2000/svg" width="20" height="22" viewBox="0 0 20 22" fill="none">
    <path d="M19.9997 11.0004C19.9997 10.6223 19.6694 10.3129 19.2587 10.3129H2.41536L8.6966 3.89769C8.97147 3.61706 8.94906 3.18183 8.64669 2.92702C8.50419 2.81058 8.32562 2.75042 8.14705 2.75042C7.94594 2.75042 7.74486 2.82562 7.59884 2.97601L0.192589 10.5385C-0.0641964 10.8004 -0.0641964 11.2007 0.192589 11.4623L7.59884 19.0248C7.87518 19.3068 8.34393 19.3256 8.64571 19.0718C8.94808 18.8167 8.97049 18.3818 8.69562 18.1012L2.41536 11.6879H19.2591C19.6694 11.6879 19.9997 11.3785 19.9997 11.0004Z" fill="#F76D00"/>
  </svg>