<svg width="64" height="41" viewBox="0 0 64 41" fill="none" xmlns="http://www.w3.org/2000/svg">
    <path d="M4.0627 37.1C3.32936 37.1 2.69936 36.9533 2.1727 36.66C1.6527 36.36 1.2527 35.94 0.972695 35.4C0.692695 34.8533 0.552695 34.21 0.552695 33.47C0.552695 32.73 0.692695 32.09 0.972695 31.55C1.2527 31.01 1.6527 30.5933 2.1727 30.3C2.69936 30 3.32936 29.85 4.0627 29.85C4.53603 29.85 4.9827 29.9233 5.4027 30.07C5.82936 30.2167 6.17936 30.4267 6.4527 30.7L6.0327 31.72C5.7327 31.4667 5.42603 31.2833 5.1127 31.17C4.79936 31.05 4.4627 30.99 4.1027 30.99C3.38936 30.99 2.84603 31.2067 2.4727 31.64C2.09936 32.0667 1.9127 32.6767 1.9127 33.47C1.9127 34.2633 2.09936 34.8767 2.4727 35.31C2.84603 35.7433 3.38936 35.96 4.1027 35.96C4.4627 35.96 4.79936 35.9033 5.1127 35.79C5.42603 35.67 5.7327 35.4833 6.0327 35.23L6.4527 36.25C6.17936 36.5167 5.82936 36.7267 5.4027 36.88C4.9827 37.0267 4.53603 37.1 4.0627 37.1ZM9.32824 37.1C8.82158 37.1 8.38158 36.9967 8.00824 36.79C7.63491 36.5833 7.34491 36.29 7.13824 35.91C6.93158 35.5233 6.82824 35.07 6.82824 34.55C6.82824 34.03 6.93158 33.58 7.13824 33.2C7.34491 32.82 7.63491 32.5267 8.00824 32.32C8.38158 32.1133 8.82158 32.01 9.32824 32.01C9.83491 32.01 10.2749 32.1133 10.6482 32.32C11.0216 32.5267 11.3116 32.82 11.5182 33.2C11.7249 33.58 11.8282 34.03 11.8282 34.55C11.8282 35.07 11.7249 35.5233 11.5182 35.91C11.3116 36.29 11.0216 36.5833 10.6482 36.79C10.2749 36.9967 9.83491 37.1 9.32824 37.1ZM9.32824 36.15C9.70158 36.15 10.0016 36.0167 10.2282 35.75C10.4549 35.4767 10.5682 35.0767 10.5682 34.55C10.5682 34.0167 10.4549 33.62 10.2282 33.36C10.0016 33.0933 9.70158 32.96 9.32824 32.96C8.95491 32.96 8.65491 33.0933 8.42824 33.36C8.20158 33.62 8.08824 34.0167 8.08824 34.55C8.08824 35.0767 8.20158 35.4767 8.42824 35.75C8.65491 36.0167 8.95491 36.15 9.32824 36.15ZM12.86 37V32.11H14.08V32.87C14.2466 32.59 14.47 32.3767 14.75 32.23C15.0366 32.0833 15.3566 32.01 15.71 32.01C16.8633 32.01 17.44 32.68 17.44 34.02V37H16.19V34.08C16.19 33.7 16.1166 33.4233 15.97 33.25C15.83 33.0767 15.61 32.99 15.31 32.99C14.9433 32.99 14.65 33.1067 14.43 33.34C14.2166 33.5667 14.11 33.87 14.11 34.25V37H12.86ZM20.4996 37.1C20.0862 37.1 19.6996 37.05 19.3396 36.95C18.9796 36.85 18.6796 36.7067 18.4396 36.52L18.7596 35.7C19.0062 35.8667 19.2829 35.9967 19.5896 36.09C19.8962 36.1767 20.2029 36.22 20.5096 36.22C20.8296 36.22 21.0662 36.1667 21.2196 36.06C21.3796 35.9467 21.4596 35.8 21.4596 35.62C21.4596 35.34 21.2529 35.16 20.8396 35.08L19.8396 34.89C18.9929 34.73 18.5696 34.29 18.5696 33.57C18.5696 33.25 18.6562 32.9733 18.8296 32.74C19.0096 32.5067 19.2562 32.3267 19.5696 32.2C19.8829 32.0733 20.2429 32.01 20.6496 32.01C20.9962 32.01 21.3296 32.06 21.6496 32.16C21.9696 32.2533 22.2429 32.3967 22.4696 32.59L22.1296 33.41C21.9362 33.25 21.7029 33.1233 21.4296 33.03C21.1629 32.9367 20.9062 32.89 20.6596 32.89C20.3329 32.89 20.0896 32.9467 19.9296 33.06C19.7762 33.1733 19.6996 33.3233 19.6996 33.51C19.6996 33.8033 19.8896 33.9833 20.2696 34.05L21.2696 34.24C21.7029 34.32 22.0296 34.4667 22.2496 34.68C22.4762 34.8933 22.5896 35.18 22.5896 35.54C22.5896 36.0267 22.3996 36.41 22.0196 36.69C21.6396 36.9633 21.1329 37.1 20.4996 37.1ZM25.3624 37.1C24.1624 37.1 23.5624 36.4267 23.5624 35.08V32.11H24.8124V35.1C24.8124 35.4467 24.8824 35.7033 25.0224 35.87C25.1624 36.0367 25.3857 36.12 25.6924 36.12C26.0257 36.12 26.299 36.0067 26.5124 35.78C26.7257 35.5467 26.8324 35.24 26.8324 34.86V32.11H28.0824V37H26.8624V36.27C26.5357 36.8233 26.0357 37.1 25.3624 37.1ZM31.0834 37.1C30.5034 37.1 30.0734 36.9433 29.7934 36.63C29.5201 36.31 29.3834 35.8433 29.3834 35.23V29.95H30.6334V35.17C30.6334 35.77 30.8867 36.07 31.3934 36.07C31.4667 36.07 31.5401 36.0667 31.6134 36.06C31.6867 36.0533 31.7567 36.04 31.8234 36.02L31.8034 37.01C31.5634 37.07 31.3234 37.1 31.0834 37.1ZM34.6898 37.1C33.3965 37.1 32.7498 36.46 32.7498 35.18V33.05H31.8098V32.11H32.7498V30.65H33.9998V32.11H35.4798V33.05H33.9998V35.11C33.9998 35.43 34.0698 35.67 34.2098 35.83C34.3498 35.99 34.5765 36.07 34.8898 36.07C34.9831 36.07 35.0798 36.06 35.1798 36.04C35.2798 36.0133 35.3831 35.9867 35.4898 35.96L35.6798 36.88C35.5598 36.9467 35.4065 37 35.2198 37.04C35.0398 37.08 34.8631 37.1 34.6898 37.1ZM37.8977 37.1C37.5444 37.1 37.2277 37.0333 36.9477 36.9C36.6744 36.76 36.4577 36.5733 36.2977 36.34C36.1444 36.1067 36.0677 35.8433 36.0677 35.55C36.0677 35.19 36.161 34.9067 36.3477 34.7C36.5344 34.4867 36.8377 34.3333 37.2577 34.24C37.6777 34.1467 38.241 34.1 38.9477 34.1H39.2977V33.89C39.2977 33.5567 39.2244 33.3167 39.0777 33.17C38.931 33.0233 38.6844 32.95 38.3377 32.95C38.0644 32.95 37.7844 32.9933 37.4977 33.08C37.211 33.16 36.921 33.2867 36.6277 33.46L36.2677 32.61C36.441 32.49 36.6444 32.3867 36.8777 32.3C37.1177 32.2067 37.3677 32.1367 37.6277 32.09C37.8944 32.0367 38.1444 32.01 38.3777 32.01C39.091 32.01 39.621 32.1767 39.9677 32.51C40.3144 32.8367 40.4877 33.3467 40.4877 34.04V37H39.3177V36.22C39.2044 36.4933 39.0244 36.71 38.7777 36.87C38.531 37.0233 38.2377 37.1 37.8977 37.1ZM38.1577 36.24C38.4844 36.24 38.7544 36.1267 38.9677 35.9C39.1877 35.6733 39.2977 35.3867 39.2977 35.04V34.82H38.9577C38.331 34.82 37.8944 34.87 37.6477 34.97C37.4077 35.0633 37.2877 35.2367 37.2877 35.49C37.2877 35.71 37.3644 35.89 37.5177 36.03C37.671 36.17 37.8844 36.24 38.1577 36.24ZM43.9964 37.1C42.7031 37.1 42.0564 36.46 42.0564 35.18V33.05H41.1164V32.11H42.0564V30.65H43.3064V32.11H44.7864V33.05H43.3064V35.11C43.3064 35.43 43.3764 35.67 43.5164 35.83C43.6564 35.99 43.8831 36.07 44.1964 36.07C44.2898 36.07 44.3864 36.06 44.4864 36.04C44.5864 36.0133 44.6898 35.9867 44.7964 35.96L44.9864 36.88C44.8664 36.9467 44.7131 37 44.5264 37.04C44.3464 37.08 44.1698 37.1 43.9964 37.1ZM45.5143 31.06V29.84H46.9143V31.06H45.5143ZM45.5943 37V32.11H46.8443V37H45.5943ZM50.3732 37.1C49.8665 37.1 49.4265 36.9967 49.0532 36.79C48.6798 36.5833 48.3898 36.29 48.1832 35.91C47.9765 35.5233 47.8732 35.07 47.8732 34.55C47.8732 34.03 47.9765 33.58 48.1832 33.2C48.3898 32.82 48.6798 32.5267 49.0532 32.32C49.4265 32.1133 49.8665 32.01 50.3732 32.01C50.8798 32.01 51.3198 32.1133 51.6932 32.32C52.0665 32.5267 52.3565 32.82 52.5632 33.2C52.7698 33.58 52.8732 34.03 52.8732 34.55C52.8732 35.07 52.7698 35.5233 52.5632 35.91C52.3565 36.29 52.0665 36.5833 51.6932 36.79C51.3198 36.9967 50.8798 37.1 50.3732 37.1ZM50.3732 36.15C50.7465 36.15 51.0465 36.0167 51.2732 35.75C51.4998 35.4767 51.6132 35.0767 51.6132 34.55C51.6132 34.0167 51.4998 33.62 51.2732 33.36C51.0465 33.0933 50.7465 32.96 50.3732 32.96C49.9998 32.96 49.6998 33.0933 49.4732 33.36C49.2465 33.62 49.1332 34.0167 49.1332 34.55C49.1332 35.0767 49.2465 35.4767 49.4732 35.75C49.6998 36.0167 49.9998 36.15 50.3732 36.15ZM53.9049 37V32.11H55.1249V32.87C55.2915 32.59 55.5149 32.3767 55.7949 32.23C56.0815 32.0833 56.4015 32.01 56.7549 32.01C57.9082 32.01 58.4849 32.68 58.4849 34.02V37H57.2349V34.08C57.2349 33.7 57.1615 33.4233 57.0149 33.25C56.8749 33.0767 56.6549 32.99 56.3549 32.99C55.9882 32.99 55.6949 33.1067 55.4749 33.34C55.2615 33.5667 55.1549 33.87 55.1549 34.25V37H53.9049ZM61.5445 37.1C61.1312 37.1 60.7445 37.05 60.3845 36.95C60.0245 36.85 59.7245 36.7067 59.4845 36.52L59.8045 35.7C60.0512 35.8667 60.3278 35.9967 60.6345 36.09C60.9412 36.1767 61.2478 36.22 61.5545 36.22C61.8745 36.22 62.1112 36.1667 62.2645 36.06C62.4245 35.9467 62.5045 35.8 62.5045 35.62C62.5045 35.34 62.2978 35.16 61.8845 35.08L60.8845 34.89C60.0378 34.73 59.6145 34.29 59.6145 33.57C59.6145 33.25 59.7012 32.9733 59.8745 32.74C60.0545 32.5067 60.3012 32.3267 60.6145 32.2C60.9278 32.0733 61.2878 32.01 61.6945 32.01C62.0412 32.01 62.3745 32.06 62.6945 32.16C63.0145 32.2533 63.2878 32.3967 63.5145 32.59L63.1745 33.41C62.9812 33.25 62.7478 33.1233 62.4745 33.03C62.2078 32.9367 61.9512 32.89 61.7045 32.89C61.3778 32.89 61.1345 32.9467 60.9745 33.06C60.8212 33.1733 60.7445 33.3233 60.7445 33.51C60.7445 33.8033 60.9345 33.9833 61.3145 34.05L62.3145 34.24C62.7478 34.32 63.0745 34.4667 63.2945 34.68C63.5212 34.8933 63.6345 35.18 63.6345 35.54C63.6345 36.0267 63.4445 36.41 63.0645 36.69C62.6845 36.9633 62.1778 37.1 61.5445 37.1Z" fill="#25D366"/>
    <path d="M28.9062 2.0625H35.0938C35.2828 2.0625 35.4375 2.21719 35.4375 2.40625V4.125H28.5625V2.40625C28.5625 2.21719 28.7172 2.0625 28.9062 2.0625ZM26.5 2.40625V4.125H23.75C22.2332 4.125 21 5.3582 21 6.875V17.875C21 19.3918 22.2332 20.625 23.75 20.625H40.25C41.7668 20.625 43 19.3918 43 17.875V6.875C43 5.3582 41.7668 4.125 40.25 4.125H37.5V2.40625C37.5 1.07852 36.4215 0 35.0938 0H28.9062C27.5785 0 26.5 1.07852 26.5 2.40625ZM30.625 8.9375C30.625 8.55937 30.9344 8.25 31.3125 8.25H32.6875C33.0656 8.25 33.375 8.55937 33.375 8.9375V11H35.4375C35.8156 11 36.125 11.3094 36.125 11.6875V13.0625C36.125 13.4406 35.8156 13.75 35.4375 13.75H33.375V15.8125C33.375 16.1906 33.0656 16.5 32.6875 16.5H31.3125C30.9344 16.5 30.625 16.1906 30.625 15.8125V13.75H28.5625C28.1844 13.75 27.875 13.4406 27.875 13.0625V11.6875C27.875 11.3094 28.1844 11 28.5625 11H30.625V8.9375Z" fill="#25D366"/>
    </svg>
    