<svg width="50" height="37" viewBox="0 0 50 37" fill="none" xmlns="http://www.w3.org/2000/svg">
    <g clip-path="url(#clip0_1_20)">
    <path d="M23.5521 0H18.2396C17.556 0 17 0.58875 17 1.3125V4.6875C17 5.41125 17.556 6 18.2396 6H23.5521C24.2356 6 24.7917 5.41125 24.7917 4.6875V1.3125C24.7917 0.58875 24.2356 0 23.5521 0Z" fill="#958070"/>
    <path d="M23.5521 7.5H18.2396C17.556 7.5 17 8.08875 17 8.8125V16.6875C17 17.4113 17.556 18 18.2396 18H23.5521C24.2356 18 24.7917 17.4113 24.7917 16.6875V8.8125C24.7917 8.08875 24.2356 7.5 23.5521 7.5Z" fill="#958070"/>
    <path d="M32.7604 12H27.4479C26.7643 12 26.2083 12.5888 26.2083 13.3125V16.6875C26.2083 17.4113 26.7643 18 27.4479 18H32.7604C33.4439 18 33.9999 17.4113 33.9999 16.6875V13.3125C33.9999 12.5888 33.4439 12 32.7604 12Z" fill="#958070"/>
    <path d="M32.7604 -1.90735e-06H27.4479C26.7643 -1.90735e-06 26.2083 0.588748 26.2083 1.3125V9.1875C26.2083 9.91125 26.7643 10.5 27.4479 10.5H32.7604C33.4439 10.5 33.9999 9.91125 33.9999 9.1875V1.3125C33.9999 0.588748 33.4439 -1.90735e-06 32.7604 -1.90735e-06Z" fill="#958070"/>
    </g>
    <path d="M1.23621 33V25.95H3.61621C4.75621 25.95 5.63621 26.2533 6.25621 26.86C6.87621 27.46 7.18621 28.33 7.18621 29.47C7.18621 30.61 6.87621 31.4833 6.25621 32.09C5.63621 32.6967 4.75621 33 3.61621 33H1.23621ZM2.05621 32.3H3.55621C5.39621 32.3 6.31621 31.3567 6.31621 29.47C6.31621 27.59 5.39621 26.65 3.55621 26.65H2.05621V32.3ZM10.0781 33.09C9.74475 33.09 9.44475 33.0267 9.17809 32.9C8.91809 32.7667 8.71142 32.5867 8.55809 32.36C8.40475 32.1333 8.32809 31.88 8.32809 31.6C8.32809 31.2467 8.41809 30.9667 8.59809 30.76C8.78475 30.5533 9.08809 30.4067 9.50809 30.32C9.93475 30.2267 10.5148 30.18 11.2481 30.18H11.5681V29.87C11.5681 29.4567 11.4814 29.16 11.3081 28.98C11.1414 28.7933 10.8714 28.7 10.4981 28.7C10.2048 28.7 9.92142 28.7433 9.64809 28.83C9.37475 28.91 9.09475 29.0433 8.80809 29.23L8.52809 28.64C8.78142 28.46 9.08809 28.3167 9.44809 28.21C9.81475 28.1033 10.1648 28.05 10.4981 28.05C11.1248 28.05 11.5881 28.2033 11.8881 28.51C12.1948 28.8167 12.3481 29.2933 12.3481 29.94V33H11.5881V32.16C11.4614 32.4467 11.2648 32.6733 10.9981 32.84C10.7381 33.0067 10.4314 33.09 10.0781 33.09ZM10.2081 32.48C10.6081 32.48 10.9348 32.3433 11.1881 32.07C11.4414 31.79 11.5681 31.4367 11.5681 31.01V30.71H11.2581C10.7181 30.71 10.2914 30.7367 9.97809 30.79C9.67142 30.8367 9.45475 30.9233 9.32809 31.05C9.20809 31.17 9.14809 31.3367 9.14809 31.55C9.14809 31.8233 9.24142 32.0467 9.42809 32.22C9.62142 32.3933 9.88142 32.48 10.2081 32.48ZM15.4908 33.09C15.1108 33.09 14.7508 33.0367 14.4108 32.93C14.0708 32.8233 13.7908 32.6733 13.5708 32.48L13.8308 31.91C14.0708 32.1033 14.3342 32.2467 14.6208 32.34C14.9142 32.4267 15.2108 32.47 15.5108 32.47C15.8908 32.47 16.1775 32.4 16.3708 32.26C16.5642 32.12 16.6608 31.93 16.6608 31.69C16.6608 31.5033 16.5975 31.3567 16.4708 31.25C16.3442 31.1367 16.1442 31.05 15.8708 30.99L14.9608 30.79C14.1342 30.61 13.7208 30.1833 13.7208 29.51C13.7208 29.07 13.8942 28.7167 14.2408 28.45C14.5942 28.1833 15.0542 28.05 15.6208 28.05C15.9542 28.05 16.2708 28.1033 16.5708 28.21C16.8775 28.31 17.1308 28.46 17.3308 28.66L17.0608 29.23C16.8675 29.05 16.6408 28.9133 16.3808 28.82C16.1275 28.72 15.8742 28.67 15.6208 28.67C15.2475 28.67 14.9642 28.7433 14.7708 28.89C14.5775 29.0367 14.4808 29.23 14.4808 29.47C14.4808 29.8433 14.7275 30.0833 15.2208 30.19L16.1308 30.38C16.5575 30.4733 16.8808 30.6233 17.1008 30.83C17.3208 31.03 17.4308 31.3033 17.4308 31.65C17.4308 32.0967 17.2542 32.45 16.9008 32.71C16.5475 32.9633 16.0775 33.09 15.4908 33.09ZM18.6653 33V25.95H19.4753V28.94C19.6353 28.6467 19.8586 28.4267 20.1453 28.28C20.4386 28.1267 20.7653 28.05 21.1253 28.05C22.2786 28.05 22.8553 28.69 22.8553 29.97V33H22.0453V30.02C22.0453 29.5667 21.9553 29.2367 21.7753 29.03C21.6019 28.8167 21.3219 28.71 20.9353 28.71C20.4886 28.71 20.1319 28.85 19.8653 29.13C19.6053 29.4033 19.4753 29.77 19.4753 30.23V33H18.6653ZM26.8089 33.09C26.4222 33.09 26.0822 33.0033 25.7889 32.83C25.5022 32.6567 25.2855 32.42 25.1389 32.12V33H24.3489V25.95H25.1589V28.98C25.2989 28.6933 25.5155 28.4667 25.8089 28.3C26.1022 28.1333 26.4355 28.05 26.8089 28.05C27.2422 28.05 27.6189 28.1533 27.9389 28.36C28.2655 28.56 28.5155 28.85 28.6889 29.23C28.8689 29.6033 28.9589 30.05 28.9589 30.57C28.9589 31.0833 28.8689 31.53 28.6889 31.91C28.5155 32.2833 28.2655 32.5733 27.9389 32.78C27.6189 32.9867 27.2422 33.09 26.8089 33.09ZM26.6389 32.44C27.0922 32.44 27.4555 32.28 27.7289 31.96C28.0022 31.6333 28.1389 31.17 28.1389 30.57C28.1389 29.9633 28.0022 29.5 27.7289 29.18C27.4555 28.86 27.0922 28.7 26.6389 28.7C26.1855 28.7 25.8222 28.86 25.5489 29.18C25.2755 29.5 25.1389 29.9633 25.1389 30.57C25.1389 31.17 25.2755 31.6333 25.5489 31.96C25.8222 32.28 26.1855 32.44 26.6389 32.44ZM32.1989 33.09C31.7256 33.09 31.3156 32.9867 30.9689 32.78C30.6223 32.5733 30.3523 32.2833 30.1589 31.91C29.9723 31.53 29.8789 31.0833 29.8789 30.57C29.8789 30.0567 29.9723 29.6133 30.1589 29.24C30.3523 28.86 30.6223 28.5667 30.9689 28.36C31.3156 28.1533 31.7256 28.05 32.1989 28.05C32.6656 28.05 33.0723 28.1533 33.4189 28.36C33.7723 28.5667 34.0423 28.86 34.2289 29.24C34.4223 29.6133 34.5189 30.0567 34.5189 30.57C34.5189 31.0833 34.4223 31.53 34.2289 31.91C34.0423 32.2833 33.7723 32.5733 33.4189 32.78C33.0723 32.9867 32.6656 33.09 32.1989 33.09ZM32.1989 32.44C32.6523 32.44 33.0156 32.28 33.2889 31.96C33.5623 31.6333 33.6989 31.17 33.6989 30.57C33.6989 29.9633 33.5623 29.5 33.2889 29.18C33.0156 28.86 32.6523 28.7 32.1989 28.7C31.7389 28.7 31.3723 28.86 31.0989 29.18C30.8323 29.5 30.6989 29.9633 30.6989 30.57C30.6989 31.17 30.8323 31.6333 31.0989 31.96C31.3723 32.28 31.7389 32.44 32.1989 32.44ZM37.2656 33.09C36.9323 33.09 36.6323 33.0267 36.3656 32.9C36.1056 32.7667 35.8989 32.5867 35.7456 32.36C35.5923 32.1333 35.5156 31.88 35.5156 31.6C35.5156 31.2467 35.6056 30.9667 35.7856 30.76C35.9723 30.5533 36.2756 30.4067 36.6956 30.32C37.1223 30.2267 37.7023 30.18 38.4356 30.18H38.7556V29.87C38.7556 29.4567 38.6689 29.16 38.4956 28.98C38.3289 28.7933 38.0589 28.7 37.6856 28.7C37.3923 28.7 37.1089 28.7433 36.8356 28.83C36.5623 28.91 36.2823 29.0433 35.9956 29.23L35.7156 28.64C35.9689 28.46 36.2756 28.3167 36.6356 28.21C37.0023 28.1033 37.3523 28.05 37.6856 28.05C38.3123 28.05 38.7756 28.2033 39.0756 28.51C39.3823 28.8167 39.5356 29.2933 39.5356 29.94V33H38.7756V32.16C38.6489 32.4467 38.4523 32.6733 38.1856 32.84C37.9256 33.0067 37.6189 33.09 37.2656 33.09ZM37.3956 32.48C37.7956 32.48 38.1223 32.3433 38.3756 32.07C38.6289 31.79 38.7556 31.4367 38.7556 31.01V30.71H38.4456C37.9056 30.71 37.4789 30.7367 37.1656 30.79C36.8589 30.8367 36.6423 30.9233 36.5156 31.05C36.3956 31.17 36.3356 31.3367 36.3356 31.55C36.3356 31.8233 36.4289 32.0467 36.6156 32.22C36.8089 32.3933 37.0689 32.48 37.3956 32.48ZM41.0383 33V28.14H41.8283V29.01C42.0883 28.4233 42.6217 28.1 43.4283 28.04L43.7183 28.01L43.7783 28.71L43.2683 28.77C42.8083 28.81 42.4583 28.9567 42.2183 29.21C41.9783 29.4567 41.8583 29.7967 41.8583 30.23V33H41.0383ZM46.4137 33.09C45.9804 33.09 45.6004 32.9867 45.2737 32.78C44.9537 32.5733 44.7037 32.2833 44.5237 31.91C44.3504 31.53 44.2637 31.0833 44.2637 30.57C44.2637 30.05 44.3504 29.6033 44.5237 29.23C44.7037 28.85 44.9537 28.56 45.2737 28.36C45.6004 28.1533 45.9804 28.05 46.4137 28.05C46.7937 28.05 47.127 28.1333 47.4137 28.3C47.707 28.4667 47.9237 28.6967 48.0637 28.99V25.95H48.8737V33H48.0837V32.11C47.9437 32.4167 47.727 32.6567 47.4337 32.83C47.1404 33.0033 46.8004 33.09 46.4137 33.09ZM46.5837 32.44C47.037 32.44 47.4004 32.28 47.6737 31.96C47.947 31.6333 48.0837 31.17 48.0837 30.57C48.0837 29.9633 47.947 29.5 47.6737 29.18C47.4004 28.86 47.037 28.7 46.5837 28.7C46.1237 28.7 45.757 28.86 45.4837 29.18C45.217 29.5 45.0837 29.9633 45.0837 30.57C45.0837 31.17 45.217 31.6333 45.4837 31.96C45.757 32.28 46.1237 32.44 46.5837 32.44Z" fill="#958070"/>
    <defs>
    <clipPath id="clip0_1_20">
    <rect width="17" height="18" fill="white" transform="translate(17)"/>
    </clipPath>
    </defs>
    </svg>
    