<svg xmlns="http://www.w3.org/2000/svg" width="14" height="11" viewBox="0 0 14 11" fill="none">
    <g clip-path="url(#clip0_5267_794)">
      <path d="M6.72 1.42227L1.04125 3.4375L2.66 4.01113C2.88531 3.86289 3.13031 3.74043 3.39062 3.64375L6.8775 2.35898C7.05906 2.29238 7.26031 2.38262 7.32812 2.56094C7.39594 2.73926 7.30406 2.93691 7.1225 3.00352L3.63562 4.28828C3.60281 4.29902 3.57219 4.31191 3.54156 4.3248L6.72 5.45273C6.80969 5.48496 6.90375 5.5 7 5.5C7.09625 5.5 7.19031 5.48281 7.28 5.45273L12.9588 3.4375L7.28 1.42227C7.19031 1.39004 7.09625 1.375 7 1.375C6.90375 1.375 6.80969 1.39219 6.72 1.42227ZM6.48156 6.09941L2.77594 4.78457C2.17438 5.28516 1.79594 6.01348 1.75437 6.8084C1.88344 7.09199 1.9775 7.39922 2.0475 7.7C2.1875 8.29297 2.28156 9.11582 2.09344 10.0354C2.07375 10.1277 2.01906 10.2072 1.93812 10.2588C1.85719 10.3104 1.75875 10.3254 1.66687 10.3018L0.266875 9.95801C0.153125 9.93008 0.06125 9.84844 0.021875 9.73887C-0.0175 9.6293 0.0021875 9.50898 0.0721875 9.41875C0.260312 9.16738 0.422187 8.89023 0.564375 8.61094C0.81375 8.1168 1.05 7.48516 1.05 6.875C1.05 6.86211 1.05 6.84922 1.05219 6.83633C1.08281 5.95547 1.44594 5.13691 2.03875 4.52246L0.345625 3.92305C0.137812 3.84785 0 3.65449 0 3.4375C0 3.22051 0.137812 3.02715 0.345625 2.95195L6.48156 0.775586C6.64781 0.717578 6.82281 0.6875 7 0.6875C7.17719 0.6875 7.35219 0.717578 7.51844 0.775586L13.6544 2.95195C13.8622 3.025 14 3.22051 14 3.4375C14 3.65449 13.8622 3.84785 13.6544 3.92305L7.51844 6.09941C7.35219 6.15742 7.17719 6.1875 7 6.1875C6.82281 6.1875 6.64781 6.15742 6.48156 6.09941ZM3.81281 5.88457L3.50875 8.7291C3.52406 8.74629 3.54813 8.77422 3.58969 8.80859C3.72094 8.92031 3.95062 9.05566 4.2875 9.18457C4.9525 9.44023 5.91281 9.625 7 9.625C8.08719 9.625 9.0475 9.44023 9.71469 9.18242C10.0516 9.05351 10.2791 8.91816 10.4125 8.80644C10.4541 8.77207 10.4781 8.74629 10.4934 8.72695L10.1872 5.88242L10.8653 5.6418L11.2 8.76562C11.2 9.52402 9.31875 10.3125 7 10.3125C4.68125 10.3125 2.8 9.52402 2.8 8.76562L3.13469 5.6418L3.81281 5.88242V5.88457ZM10.5109 8.70117C10.5116 8.70072 10.5122 8.7001 10.5125 8.69937C10.5128 8.69863 10.5129 8.69782 10.5128 8.69703C10.5127 8.69623 10.5124 8.69548 10.5119 8.69486C10.5114 8.69424 10.5107 8.69378 10.5099 8.69352C10.5091 8.69327 10.5083 8.69324 10.5075 8.69342C10.5067 8.69361 10.506 8.69401 10.5054 8.69459C10.5048 8.69516 10.5044 8.69588 10.5042 8.69666C10.5041 8.69745 10.5041 8.69826 10.5044 8.69902C10.5037 8.69947 10.5032 8.7001 10.5028 8.70083C10.5025 8.70156 10.5024 8.70237 10.5025 8.70317C10.5026 8.70396 10.5029 8.70471 10.5034 8.70533C10.504 8.70595 10.5046 8.70642 10.5054 8.70667C10.5062 8.70692 10.507 8.70696 10.5078 8.70677C10.5086 8.70658 10.5094 8.70618 10.5099 8.70561C10.5105 8.70504 10.5109 8.70432 10.5111 8.70353C10.5113 8.70275 10.5112 8.70193 10.5109 8.70117ZM3.48906 8.70117C3.48906 8.70174 3.48929 8.70229 3.4897 8.70269C3.49011 8.70309 3.49067 8.70332 3.49125 8.70332C3.49183 8.70332 3.49239 8.70309 3.4928 8.70269C3.49321 8.70229 3.49344 8.70174 3.49344 8.70117C3.49344 8.7006 3.49321 8.70006 3.4928 8.69965C3.49239 8.69925 3.49183 8.69902 3.49125 8.69902C3.49067 8.69902 3.49011 8.69925 3.4897 8.69965C3.48929 8.70006 3.48906 8.7006 3.48906 8.70117ZM1.46562 9.54336C1.52031 9.09863 1.50281 8.68398 1.45469 8.32519C1.37156 8.54004 1.27969 8.73984 1.19 8.91816C1.10688 9.08144 1.01719 9.24473 0.916562 9.40801L1.46562 9.54336Z" fill="#009DDD"/>
    </g>
    <defs>
      <clipPath id="clip0_5267_794">
        <rect width="14" height="11" fill="white"/>
      </clipPath>
    </defs>
  </svg>