<svg xmlns="http://www.w3.org/2000/svg" width="12" height="11" viewBox="0 0 12 11" fill="none">
    <g clip-path="url(#clip0_5267_792)">
      <path d="M2.96877 0.336396C3.06669 0.602802 2.93544 0.899286 2.6771 1.00026L1.77502 1.34831C1.71044 1.37409 1.66669 1.43854 1.66669 1.50944V4.29811C1.66669 5.53132 2.63752 6.53249 3.83335 6.53249H4.00002H4.16669C5.36252 6.53249 6.33335 5.53132 6.33335 4.29811V1.50944C6.33335 1.43854 6.2896 1.37409 6.22502 1.34831L5.32502 1.00026C5.06669 0.899286 4.93544 0.602802 5.03335 0.336396C5.13127 0.0699894 5.41877 -0.0653621 5.6771 0.0356144L6.5771 0.383661C7.03127 0.557685 7.33335 1.00671 7.33335 1.50944V4.29811C7.33335 5.98464 6.09377 7.37253 4.50419 7.5444C4.58127 8.89792 5.66877 9.96999 7.00002 9.96999C8.38127 9.96999 9.50002 8.81628 9.50002 7.39186V5.7655C8.82294 5.54636 8.33335 4.89538 8.33335 4.12624C8.33335 3.17663 9.07919 2.40749 10 2.40749C10.9209 2.40749 11.6667 3.17663 11.6667 4.12624C11.6667 4.89538 11.1771 5.54636 10.5 5.7655V7.39186C10.5 9.38561 8.93335 11.0012 7.00002 11.0012C5.11669 11.0012 3.58127 9.46725 3.50419 7.54655C1.91044 7.37683 0.666687 5.98679 0.666687 4.29811V1.50944C0.666687 1.00886 0.96877 0.559833 1.42294 0.383661L2.32502 0.033466C2.58335 -0.0675106 2.87085 0.067841 2.96877 0.334247V0.336396ZM10 3.43874C9.82321 3.43874 9.65364 3.51117 9.52862 3.6401C9.40359 3.76904 9.33335 3.9439 9.33335 4.12624C9.33335 4.30858 9.40359 4.48344 9.52862 4.61238C9.65364 4.74131 9.82321 4.81374 10 4.81374C10.1768 4.81374 10.3464 4.74131 10.4714 4.61238C10.5964 4.48344 10.6667 4.30858 10.6667 4.12624C10.6667 3.9439 10.5964 3.76904 10.4714 3.6401C10.3464 3.51117 10.1768 3.43874 10 3.43874Z" fill="#009DDD"/>
    </g>
    <defs>
      <clipPath id="clip0_5267_792">
        <rect width="12" height="11" fill="white"/>
      </clipPath>
    </defs>
  </svg>