<svg width="39" height="39" viewBox="0 0 39 39" fill="none" xmlns="http://www.w3.org/2000/svg">
    <circle cx="19.5" cy="19.5" r="19.5" fill="#F8F6F4"/>
    <g clip-path="url(#clip0_1_26)">
    <path d="M11 13.125C11 11.9529 11.9529 11 13.125 11H25.875C27.0471 11 28 11.9529 28 13.125V22.6875C28 23.8596 27.0471 24.8125 25.875 24.8125H21.2697L17.1625 27.8937C17.0031 28.0133 16.7873 28.0332 16.6047 27.9436C16.4221 27.8539 16.3125 27.6713 16.3125 27.4688V24.8125H13.125C11.9529 24.8125 11 23.8596 11 22.6875V13.125ZM16.0469 15.7812C15.6053 15.7812 15.25 16.1365 15.25 16.5781C15.25 17.0197 15.6053 17.375 16.0469 17.375H22.9531C23.3947 17.375 23.75 17.0197 23.75 16.5781C23.75 16.1365 23.3947 15.7812 22.9531 15.7812H16.0469ZM16.0469 18.9688C15.6053 18.9688 15.25 19.324 15.25 19.7656C15.25 20.2072 15.6053 20.5625 16.0469 20.5625H19.7656C20.2072 20.5625 20.5625 20.2072 20.5625 19.7656C20.5625 19.324 20.2072 18.9688 19.7656 18.9688H16.0469Z" fill="#D4CFCC"/>
    </g>
    <defs>
    <clipPath id="clip0_1_26">
    <rect width="17" height="17" fill="white" transform="translate(11 11)"/>
    </clipPath>
    </defs>
    </svg>
    