<svg xmlns="http://www.w3.org/2000/svg" width="11" height="11" viewBox="0 0 11 11" fill="none">
    <g clip-path="url(#clip0_5257_425)">
      <path d="M0 1.375C0 0.616602 0.616602 0 1.375 0H9.625C10.3834 0 11 0.616602 11 1.375V7.5625C11 8.3209 10.3834 8.9375 9.625 8.9375H6.64512L3.9875 10.9313C3.88438 11.0086 3.74473 11.0215 3.62656 10.9635C3.5084 10.9055 3.4375 10.7873 3.4375 10.6563V8.9375H1.375C0.616602 8.9375 0 8.3209 0 7.5625V1.375ZM3.26562 3.09375C2.97988 3.09375 2.75 3.32363 2.75 3.60938C2.75 3.89512 2.97988 4.125 3.26562 4.125H7.73438C8.02012 4.125 8.25 3.89512 8.25 3.60938C8.25 3.32363 8.02012 3.09375 7.73438 3.09375H3.26562ZM3.26562 5.15625C2.97988 5.15625 2.75 5.38613 2.75 5.67188C2.75 5.95762 2.97988 6.1875 3.26562 6.1875H5.67188C5.95762 6.1875 6.1875 5.95762 6.1875 5.67188C6.1875 5.38613 5.95762 5.15625 5.67188 5.15625H3.26562Z" fill="#F76D00"/>
    </g>
    <defs>
      <clipPath id="clip0_5257_425">
        <rect width="11" height="11" fill="white"/>
      </clipPath>
    </defs>
  </svg>