<svg width="39" height="39" viewBox="0 0 39 39" fill="none" xmlns="http://www.w3.org/2000/svg">
    <circle cx="19.5" cy="19.5" r="19.5" fill="#F8F6F4"/>
    <g clip-path="url(#clip0_1_22)">
    <path d="M27.4089 24.0627C26.1339 23.0065 25.4028 21.4628 25.4028 19.8274V17.5234C25.4028 14.6154 23.1985 12.2081 20.3433 11.8048V10.9123C20.3433 10.4553 19.9655 10.0859 19.5 10.0859C19.0345 10.0859 18.6567 10.4553 18.6567 10.9123V11.8048C15.8006 12.2081 13.5972 14.6154 13.5972 17.5234V19.8274C13.5972 21.4628 12.8661 23.0065 11.5835 24.0693C11.2555 24.3445 11.0675 24.7444 11.0675 25.1675C11.0675 25.965 11.7294 26.6137 12.5432 26.6137H26.4568C27.2706 26.6137 27.9325 25.965 27.9325 25.1675C27.9325 24.7444 27.7445 24.3445 27.4089 24.0627Z" fill="#D4CFCC"/>
    <path d="M19.5 29.9167C21.0272 29.9167 22.3047 28.8498 22.5982 27.4375H16.4019C16.6954 28.8498 17.9729 29.9167 19.5 29.9167Z" fill="#D4CFCC"/>
    </g>
    <circle cx="24.1041" cy="14.6927" r="3.89583" fill="#25D366" stroke="white" stroke-width="2"/>
    <defs>
    <clipPath id="clip0_1_22">
    <rect width="17" height="19.8333" fill="white" transform="translate(11 10.0859)"/>
    </clipPath>
    </defs>
    </svg>
    