<svg width="39" height="34" viewBox="0 0 39 34" fill="none" xmlns="http://www.w3.org/2000/svg">
    <g clip-path="url(#clip0_1_12)">
    <path d="M30.9132 9.98825H24.0038V3.20641C24.0038 2.46377 23.7032 1.75153 23.1682 1.2264C22.6332 0.701266 21.9075 0.40625 21.1509 0.40625H14.2519C13.7438 0.40625 13.2564 0.604381 12.8971 0.957056C12.5378 1.30973 12.3359 1.78806 12.3359 2.28682H21.1509C21.2739 2.28682 21.3958 2.3106 21.5094 2.35682C21.6231 2.40303 21.7264 2.47077 21.8134 2.55616C21.9004 2.64155 21.9694 2.74292 22.0165 2.85449C22.0635 2.96606 22.0878 3.08564 22.0878 3.2064V10.8379C22.0878 11.1113 22.1984 11.3735 22.3954 11.5668C22.5924 11.7602 22.8596 11.8688 23.1381 11.8688H30.9132C31.1617 11.8688 31.4 11.9657 31.5757 12.1381C31.7514 12.3106 31.8501 12.5445 31.8501 12.7884V19.5177C31.8501 19.7616 31.7514 19.9955 31.5757 20.1679C31.4 20.3404 31.1617 20.4373 30.9132 20.4373H23.1382C22.8596 20.4373 22.5924 20.5459 22.3954 20.7392C22.1985 20.9326 22.0878 21.1948 22.0878 21.4682V29.0997C22.0878 29.2204 22.0636 29.34 22.0165 29.4516C21.9694 29.5632 21.9004 29.6645 21.8134 29.7499C21.7264 29.8353 21.6231 29.903 21.5094 29.9493C21.3958 29.9955 21.2739 30.0193 21.1509 30.0193H12.336C12.336 30.518 12.5378 30.9963 12.8971 31.349C13.2564 31.7017 13.7438 31.8998 14.2519 31.8998H21.1509C21.9076 31.8998 22.6332 31.6048 23.1682 31.0797C23.7032 30.5545 24.0038 29.8423 24.0038 29.0997V22.3178H30.9133C31.6699 22.3178 32.3955 22.0228 32.9306 21.4977C33.4656 20.9726 33.7661 20.2603 33.7661 19.5177V12.7884C33.7661 12.4207 33.6923 12.0566 33.549 11.7168C33.4056 11.3771 33.1955 11.0684 32.9305 10.8084C32.6656 10.5484 32.3511 10.3421 32.005 10.2014C31.6589 10.0607 31.2879 9.98825 30.9132 9.98825Z" fill="#009DDD"/>
    <path d="M16.307 20.5727C16.2009 20.3784 15.7024 20.1524 15.5776 20.1957C15.4257 20.347 15.3395 20.5501 15.3369 20.7625C15.4956 21.9914 16.1667 22.9926 14.9002 23.9704C13.4725 24.8548 13.4437 22.2981 12.8269 23.1353C12.4893 23.6753 12.1307 24.2585 11.6145 24.6437C10.2452 25.6118 9.12103 23.3741 10.3252 22.6161C11.0349 22.119 11.1745 21.8514 10.4334 21.2814C9.09576 19.595 12.7241 20.0327 13.2422 18.9042C10.2524 18.6522 6.89186 18.7666 4.97757 21.2636C4.55622 21.7896 4.60852 22.4278 4.72659 23.0459C4.83269 23.8257 5.15639 24.5965 5.14765 25.3826C4.71016 27.4805 6.9219 29.1972 8.91722 29.0082C10.1086 28.8814 11.2825 27.765 12.4576 28.5768C14.1045 29.9132 17.1164 29.4067 17.5327 27.147C18.1588 24.7832 17.7328 22.5811 16.307 20.5727Z" fill="#25D366"/>
    <path d="M12.982 17.8914C11.3687 16.2975 7.30165 17.6252 6.77751 16.5629C6.39063 15.787 7.27946 14.9017 8.09469 15.1085C8.8272 15.4623 9.33305 15.367 9.16746 14.4537C9.14636 14.2973 9.05612 13.963 9.12179 13.9163C9.80554 13.4363 10.5748 13.9961 11.2263 14.2646C11.6508 14.492 12.0451 14.77 12.4001 15.0924C12.8326 15.4491 12.9955 16.0175 13.4997 16.3139C12.4846 13.3103 9.44219 10.2164 5.95048 10.5756C5.12027 10.6056 4.38914 11.2123 4.37367 12.0534C4.37367 13.9255 1.88895 11.4149 0.417905 13.7915C-0.390275 14.9619 0.734773 16.1059 1.43417 17.0084C1.50519 17.1042 1.59116 17.2532 1.56302 17.3465C1.13184 18.7777 2.62871 20.2057 4.26196 19.9167C6.05266 19.4722 7.77017 18.7391 9.54891 18.2461C10.6747 17.9694 11.8702 18.3026 12.982 17.8914Z" fill="#009DDD"/>
    <path d="M10.8961 10.9615C12.1153 11.8747 12.8817 13.1624 13.5974 14.4661C14.2738 14.131 13.4174 13.0334 13.3504 12.4938C13.0667 11.5892 12.7804 10.6844 12.5401 9.76822C12.2267 7.89738 13.9914 7.25331 14.6996 9.2411C14.996 10.1014 15.3401 10.9843 15.2237 11.9098C15.2402 12.4772 14.9792 13.0818 15.2957 13.601C15.704 13.4726 15.926 13.1709 16.1198 12.8149C17.5798 10.6108 18.4104 7.70206 17.0636 5.24382C16.5983 4.35951 15.5026 4.58042 14.6892 4.32653C14.4559 4.25621 14.252 4.1137 14.108 3.92027C13.1633 2.24658 10.3081 2.99772 10.3254 4.89046C10.3191 5.46738 10.0375 5.84114 9.55679 6.11452C9.03869 6.42132 8.32931 6.70774 8.36744 7.4111C8.31726 9.06998 9.64721 10.0871 10.8961 10.9615Z" fill="#F76D00"/>
    </g>
    <path d="M30.434 32V28.538H29.036V27.77H32.762V28.538H31.364V32H30.434ZM33.229 32V27.77H34.003L35.431 30.368L36.853 27.77H37.615V32H36.769V29.42L35.677 31.364H35.155L34.069 29.438V32H33.229Z" fill="#958070"/>
    <defs>
    <clipPath id="clip0_1_12">
    <rect width="34" height="32" fill="white"/>
    </clipPath>
    </defs>
    </svg>
    