<svg xmlns="http://www.w3.org/2000/svg" width="39" height="48" viewBox="0 0 39 48" fill="none">
    <g clip-path="url(#clip0_5300_346)">
      <path d="M4.89574 46.9067C2.85058 46.9067 1.24396 45.2815 1.24396 43.2126V4.80349C1.24396 2.73462 2.85058 1.10938 4.89574 1.10938H27.3845C28.1878 1.10938 28.9174 1.40579 29.4297 1.99661L36.8768 9.53002C37.4608 10.1208 37.7539 10.8589 37.7539 11.5989V43.2126C37.7539 45.2815 36.1472 46.9067 34.1021 46.9067H4.89574Z" fill="white"/>
      <path d="M27.3856 1.84524C27.9696 1.84524 28.5537 2.06705 28.9185 2.51066L36.3655 10.0441C36.8041 10.4877 37.0233 11.0039 37.0233 11.5947V43.2084C37.0233 44.8337 35.7097 46.1625 34.1031 46.1625H4.89679C3.29016 46.1625 1.97656 44.8337 1.97656 43.2084V4.79932C1.97656 3.17407 3.29016 1.84524 4.89679 1.84524H27.3856ZM27.3856 0.367188H4.89679C2.48685 0.367188 0.515442 2.36144 0.515442 4.79932V43.2084C0.515442 45.6463 2.48685 47.6406 4.89679 47.6406H34.1031C36.5131 47.6406 38.4845 45.6463 38.4845 43.2084V11.5947C38.4845 10.6349 38.1197 9.67507 37.3901 9.00964L29.943 1.47623C29.2115 0.736196 28.3344 0.367188 27.3856 0.367188Z" fill="#FF2116"/>
      <path d="M28.4619 21.6747C28.2067 21.3984 27.7861 21.1766 27.238 21.0234C26.6898 20.8721 26.0141 20.7874 25.2486 20.7874C24.8101 20.7874 24.3456 20.8157 23.8573 20.8661C23.3689 20.9165 22.8586 20.9911 22.3284 21.0838C22.0174 20.7874 21.7085 20.4648 21.4015 20.1139C21.0965 19.7631 20.7955 19.384 20.5025 18.9787C20.3012 18.6823 20.1018 18.3879 19.9105 18.0915C19.7191 17.795 19.5357 17.5006 19.3723 17.2042C19.6454 16.3372 19.8826 15.4862 20.052 14.6978C20.2214 13.9073 20.3211 13.1794 20.3211 12.5523C20.3211 12.0905 20.2473 11.4715 20.0022 10.9694C19.755 10.4653 19.3364 10.0781 18.6427 10.0781C18.4593 10.0781 18.268 10.1326 18.0985 10.2294C17.9291 10.3261 17.7836 10.4653 17.6919 10.6306C17.4188 11.1287 17.3371 11.9595 17.4547 12.9576C17.5743 13.9557 17.8932 15.1172 18.4214 16.2807C18.2381 16.8352 18.0367 17.3978 17.8175 17.9846C17.5982 18.5714 17.361 19.1803 17.1058 19.8276C16.8866 20.364 16.6494 20.8983 16.3982 21.4246C16.1471 21.9509 15.8819 22.4691 15.6089 22.9652C14.1119 23.5741 12.88 24.2113 11.9989 24.8344C11.1179 25.4575 10.5896 26.0665 10.4979 26.621C10.4621 26.8065 10.47 26.9799 10.5259 27.1473C10.5797 27.3126 10.6813 27.4699 10.8268 27.6171C10.9185 27.6917 11.0541 27.7925 11.2375 27.8752C11.4209 27.9579 11.6481 28.0224 11.9232 28.0224C12.7803 28.0224 13.6933 27.3852 14.5703 26.4193C15.4474 25.4555 16.2866 24.1629 16.9982 22.8502C17.3989 22.703 17.8095 22.5639 18.2301 22.4349C18.6507 22.3058 19.0792 22.1868 19.5178 22.0759C19.9922 21.9469 20.4487 21.836 20.8972 21.7392C21.3437 21.6424 21.7822 21.5597 22.2207 21.4851C23.2613 22.4449 24.238 22.9712 25.0732 23.2576C25.9084 23.5439 26.6021 23.5903 27.0765 23.5903C27.6426 23.5903 28.0014 23.5016 28.2406 23.3604C28.4798 23.2193 28.5974 23.0257 28.6831 22.816C28.7589 22.5639 28.7589 22.334 28.713 22.1384C28.6652 21.9469 28.5715 21.7856 28.4619 21.6747ZM17.9849 10.8161C18.0587 10.6871 18.1484 10.5863 18.254 10.5157C18.3597 10.4471 18.4773 10.4088 18.6048 10.4088C18.86 10.4088 19.0613 10.5197 19.1969 10.7375C19.3344 10.9553 19.4062 11.2779 19.4062 11.7014C19.4062 12.145 19.3324 12.7358 19.1969 13.4274C19.0593 14.1211 18.86 14.9135 18.6048 15.7625C18.0945 14.5808 17.8374 13.5202 17.7617 12.6652C17.6839 11.8143 17.7836 11.167 17.9849 10.8161ZM10.8288 26.6613C10.9205 26.1996 11.3949 25.6733 12.1704 25.1248C12.9458 24.5743 14.0242 24.0036 15.3198 23.4491C14.5903 24.7054 13.8587 25.7196 13.2029 26.4214C12.5451 27.1231 11.9611 27.5102 11.5225 27.5102C11.4308 27.5102 11.3491 27.4921 11.2714 27.4598C11.1936 27.4276 11.1219 27.3812 11.0481 27.3267C10.9564 27.234 10.8926 27.1231 10.8567 27.0081C10.8189 26.8912 10.8109 26.7722 10.8288 26.6613ZM21.8918 21.1585C21.5091 21.2331 21.1065 21.3157 20.6958 21.4065C20.2852 21.4992 19.8666 21.6001 19.446 21.711C19.0812 21.8037 18.7165 21.9045 18.3557 22.0154C17.9949 22.1263 17.6401 22.2453 17.2932 22.3744C17.4945 21.9872 17.6859 21.6081 17.8593 21.2391C18.0327 20.8701 18.1882 20.5092 18.3158 20.1583C18.4793 19.753 18.6447 19.3376 18.8042 18.9162C18.9636 18.4968 19.1191 18.0713 19.2646 17.6458C19.4101 17.9039 19.5656 18.162 19.7311 18.4221C19.8945 18.6803 20.0679 18.9384 20.2513 19.1985C20.5065 19.5493 20.7716 19.8921 21.0467 20.2188C21.3158 20.5475 21.5988 20.862 21.8918 21.1585ZM22.6214 21.3803C23.4985 21.2149 24.3197 21.1403 25.0074 21.1262C25.6971 21.1121 26.2533 21.1585 26.6001 21.2331C26.929 21.3077 27.1841 21.4549 27.3436 21.6585C27.5031 21.8622 27.5669 22.1203 27.513 22.4147C27.4592 22.7293 27.2479 22.9591 26.9509 23.0882C26.6539 23.2172 26.2712 23.2455 25.8685 23.1527C25.2107 22.9874 24.6187 22.7272 24.0805 22.4187C23.5423 22.1102 23.0599 21.7493 22.6214 21.3803Z" fill="#FF2116"/>
      <path d="M12.0584 34.2825C12.0584 34.2724 12.0585 34.2624 12.0604 34.2543C12.0624 34.2462 12.0644 34.2382 12.0684 34.2321C12.0724 34.2261 12.0784 34.22 12.0884 34.218C12.0963 34.214 12.1063 34.2119 12.1202 34.2119C12.2199 34.2059 12.3295 34.2019 12.4511 34.1978C12.5707 34.1938 12.7003 34.1898 12.8359 34.1878C12.9714 34.1857 13.1149 34.1837 13.2624 34.1817C13.4099 34.1797 13.5594 34.1797 13.7129 34.1797C14.1415 34.1797 14.5102 34.2382 14.8212 34.347C15.1322 34.4559 15.3873 34.6132 15.5866 34.8068C15.788 35.0024 15.9335 35.2343 16.0312 35.4944C16.1268 35.7545 16.1747 36.0429 16.1747 36.3474C16.1747 36.7446 16.1029 37.0854 15.9754 37.3737C15.8478 37.6601 15.6624 37.896 15.4332 38.0815C15.2039 38.267 14.9308 38.4021 14.6279 38.4908C14.3249 38.5796 13.992 38.6219 13.6412 38.6219C13.5814 38.6219 13.5335 38.6219 13.4897 38.6199C13.4458 38.6199 13.4099 38.6179 13.374 38.6159C13.3382 38.6138 13.3063 38.6138 13.2724 38.6118C13.2385 38.6098 13.2026 38.6098 13.1608 38.6098V39.2127V39.8156V40.4185V41.0215C13.1608 41.0356 13.1588 41.0457 13.1568 41.0537C13.1548 41.0618 13.1508 41.0699 13.1448 41.0759C13.1388 41.082 13.1309 41.086 13.1229 41.088C13.1149 41.09 13.103 41.092 13.091 41.092H12.8498H12.6086H12.3674H12.1262C12.1143 41.092 12.1023 41.09 12.0943 41.088C12.0864 41.086 12.0784 41.082 12.0724 41.0759C12.0664 41.0699 12.0624 41.0618 12.0604 41.0537C12.0585 41.0436 12.0565 41.0336 12.0565 41.0215V39.3377V37.654V35.9703C12.0585 35.9662 12.0584 34.2825 12.0584 34.2825ZM13.1608 37.6076C13.1966 37.6096 13.2305 37.6117 13.2644 37.6137C13.2983 37.6157 13.3342 37.6157 13.3721 37.6157C13.4099 37.6157 13.4518 37.6157 13.4996 37.6177C13.5475 37.6177 13.5993 37.6177 13.6611 37.6177C13.8425 37.6177 14.0199 37.6016 14.1853 37.5613C14.3508 37.5209 14.5023 37.4584 14.6318 37.3636C14.7614 37.2689 14.8691 37.1439 14.9428 36.9805C15.0166 36.8172 15.0604 36.6155 15.0604 36.3675C15.0604 36.1679 15.0305 35.9945 14.9727 35.8453C14.9149 35.696 14.8292 35.571 14.7176 35.4702C14.6059 35.3714 14.4684 35.2948 14.3069 35.2444C14.1455 35.194 13.9601 35.1698 13.7528 35.1698C13.691 35.1698 13.6312 35.1698 13.5734 35.1718C13.5156 35.1738 13.4598 35.1738 13.4079 35.1758C13.3561 35.1778 13.3083 35.1798 13.2664 35.1819C13.2246 35.1839 13.1887 35.1879 13.1608 35.1899V35.7949V36.3998V37.0047V37.6076Z" fill="#2C2C2C"/>
      <path d="M17.2772 34.2946C17.2772 34.2805 17.2772 34.2704 17.2792 34.2624C17.2812 34.2523 17.2852 34.2462 17.2892 34.2382C17.2952 34.2321 17.3012 34.2261 17.3111 34.222C17.3211 34.218 17.3331 34.214 17.349 34.212C17.4088 34.2099 17.4945 34.2059 17.6002 34.2019C17.7078 34.1978 17.8354 34.1958 17.9769 34.1918C18.1184 34.1878 18.2759 34.1857 18.4413 34.1837C18.6048 34.1817 18.7782 34.1797 18.9516 34.1797C19.4699 34.1797 19.9224 34.2644 20.3111 34.4217C20.6998 34.5789 21.0227 34.8108 21.2799 35.1032C21.539 35.3956 21.7323 35.7525 21.8619 36.1578C21.9915 36.5631 22.0553 37.0188 22.0553 37.5169C22.0553 38.2065 21.9436 38.7772 21.7543 39.243C21.5649 39.7088 21.2978 40.0717 20.9888 40.35C20.6799 40.6283 20.327 40.8178 19.9643 40.9388C19.6035 41.0598 19.2327 41.1122 18.8879 41.1122C18.7583 41.1122 18.6128 41.1122 18.4653 41.1102C18.3178 41.1102 18.1643 41.1082 18.0208 41.1062C17.8752 41.1041 17.7397 41.1021 17.6221 41.1001C17.5045 41.0981 17.4048 41.0941 17.337 41.092C17.3271 41.092 17.3171 41.09 17.3091 41.086C17.3012 41.082 17.2952 41.0779 17.2892 41.0699C17.2832 41.0618 17.2812 41.0537 17.2772 41.0436C17.2752 41.0336 17.2733 41.0215 17.2733 41.0094V39.3297V37.65V35.9703L17.2772 34.2946ZM18.3915 40.1C18.4354 40.102 18.4772 40.106 18.5191 40.108C18.5609 40.11 18.6028 40.1121 18.6447 40.1141C18.6865 40.1161 18.7284 40.1181 18.7742 40.1181C18.8181 40.1181 18.8639 40.1201 18.9138 40.1201C19.2008 40.1201 19.4679 40.0697 19.7071 39.9648C19.9483 39.86 20.1616 39.7047 20.339 39.493C20.5164 39.2813 20.6599 39.0151 20.7576 38.6905C20.8553 38.3678 20.9111 37.9867 20.9131 37.5471C20.9151 37.1197 20.8632 36.7547 20.7656 36.4522C20.6679 36.1497 20.5244 35.9058 20.347 35.7162C20.1696 35.5267 19.9583 35.3896 19.7211 35.3008C19.4859 35.2121 19.2247 35.1718 18.9516 35.1718C18.8978 35.1718 18.848 35.1718 18.7982 35.1738C18.7483 35.1758 18.7025 35.1758 18.6566 35.1778C18.6108 35.1798 18.5669 35.1819 18.5231 35.1839C18.4792 35.1859 18.4354 35.1899 18.3915 35.1919V36.4179V37.6439V38.8699C18.3915 38.8719 18.3915 40.1 18.3915 40.1Z" fill="#2C2C2C"/>
      <path d="M24.3953 41.0086C24.3953 41.0247 24.3933 41.0368 24.3913 41.0469C24.3893 41.057 24.3853 41.0671 24.3794 41.0731C24.3734 41.0792 24.3654 41.0832 24.3574 41.0872C24.3495 41.0893 24.3375 41.0913 24.3255 41.0913H24.0823H23.8392H23.596H23.3528C23.3408 41.0913 23.3289 41.0893 23.3209 41.0872C23.3129 41.0852 23.3049 41.0792 23.299 41.0731C23.293 41.0671 23.289 41.059 23.287 41.0469C23.285 41.0368 23.283 41.0227 23.283 41.0086V39.3249V37.6411V35.9574V34.2737C23.283 34.2616 23.285 34.2495 23.287 34.2414C23.289 34.2334 23.293 34.2253 23.299 34.2193C23.3049 34.2132 23.3129 34.2092 23.3209 34.2072C23.3289 34.2051 23.3408 34.2031 23.3528 34.2031H24.2019H25.0511H25.9003H26.7494C26.7654 34.2031 26.7773 34.2051 26.7873 34.2072C26.7973 34.2092 26.8032 34.2132 26.8092 34.2193C26.8152 34.2253 26.8192 34.2334 26.8232 34.2414C26.8272 34.2495 26.8292 34.2616 26.8312 34.2737L26.8571 34.4915L26.883 34.7092L26.9089 34.927L26.9348 35.1448C26.9368 35.1609 26.9368 35.173 26.9348 35.1831C26.9328 35.1932 26.9268 35.2033 26.9209 35.2093C26.9149 35.2154 26.9049 35.2194 26.8929 35.2234C26.881 35.2255 26.869 35.2275 26.8531 35.2275H26.2371H25.6232H25.0073H24.3913V35.7175V36.2075V36.6975V37.1875H24.9435H25.4956H26.0478H26.5999C26.6139 37.1875 26.6238 37.1875 26.6318 37.1895C26.6418 37.1915 26.6478 37.1955 26.6537 37.1995C26.6597 37.2056 26.6637 37.2116 26.6657 37.2217C26.6677 37.2318 26.6697 37.2439 26.6697 37.26V37.4778V37.6956V37.9134V38.1311C26.6697 38.1473 26.6677 38.1594 26.6657 38.1695C26.6637 38.1795 26.6597 38.1856 26.6537 38.1916C26.6478 38.1977 26.6398 38.1997 26.6318 38.2017C26.6219 38.2037 26.6119 38.2037 26.5999 38.2037H26.0498H25.4976H24.9455H24.3933V38.9055V39.6072V40.3089L24.3953 41.0086Z" fill="#2C2C2C"/>
    </g>
    <defs>
      <clipPath id="clip0_5300_346">
        <rect width="39" height="48" fill="white"/>
      </clipPath>
    </defs>
  </svg>