<svg width="44" height="56" viewBox="0 0 44 56" fill="none" xmlns="http://www.w3.org/2000/svg">
    <path d="M11.1659 38V30.95H13.9559C14.7159 30.95 15.2959 31.1267 15.6959 31.48C16.1026 31.8333 16.3059 32.3367 16.3059 32.99C16.3059 33.51 16.1626 33.9367 15.8759 34.27C15.5959 34.6033 15.1959 34.82 14.6759 34.92C14.9826 35.0267 15.2459 35.2867 15.4659 35.7L16.7059 38H15.8059L14.5859 35.74C14.4326 35.46 14.2559 35.27 14.0559 35.17C13.8559 35.07 13.5926 35.02 13.2659 35.02H11.9859V38H11.1659ZM11.9859 34.37H13.8359C14.9426 34.37 15.4959 33.91 15.4959 32.99C15.4959 32.0833 14.9426 31.63 13.8359 31.63H11.9859V34.37ZM19.8279 38.09C19.0613 38.09 18.4546 37.8667 18.0079 37.42C17.5613 36.9667 17.3379 36.3533 17.3379 35.58C17.3379 35.08 17.4379 34.64 17.6379 34.26C17.8379 33.8733 18.1113 33.5767 18.4579 33.37C18.8113 33.1567 19.2179 33.05 19.6779 33.05C20.3379 33.05 20.8546 33.2633 21.2279 33.69C21.6013 34.11 21.7879 34.69 21.7879 35.43V35.74H18.1279C18.1546 36.2933 18.3146 36.7167 18.6079 37.01C18.9013 37.2967 19.3079 37.44 19.8279 37.44C20.1213 37.44 20.4013 37.3967 20.6679 37.31C20.9346 37.2167 21.1879 37.0667 21.4279 36.86L21.7079 37.43C21.4879 37.6367 21.2079 37.8 20.8679 37.92C20.5279 38.0333 20.1813 38.09 19.8279 38.09ZM19.6979 33.65C19.2379 33.65 18.8746 33.7933 18.6079 34.08C18.3413 34.3667 18.1846 34.7433 18.1379 35.21H21.0879C21.0679 34.7167 20.9379 34.3333 20.6979 34.06C20.4646 33.7867 20.1313 33.65 19.6979 33.65ZM23.2202 38V33.77H22.2602V33.14H23.2202V32.97C23.2202 32.3233 23.3802 31.8333 23.7002 31.5C24.0269 31.1667 24.5269 30.98 25.2002 30.94L25.5702 30.92L25.6202 31.55L25.2002 31.57C24.7869 31.5967 24.4869 31.72 24.3002 31.94C24.1202 32.1533 24.0302 32.4633 24.0302 32.87V33.14H27.0302V38H26.2202V33.77H24.0302V38H23.2202ZM26.1302 31.93V31.02H27.1202V31.93H26.1302ZM30.0361 38.09C29.5428 38.09 29.1695 37.9467 28.9161 37.66C28.6695 37.3667 28.5461 36.9433 28.5461 36.39V30.95H29.3561V36.33C29.3561 37.0433 29.6395 37.4 30.2061 37.4C30.3728 37.4 30.5228 37.38 30.6561 37.34L30.6361 38.02C30.4295 38.0667 30.2295 38.09 30.0361 38.09ZM32.9951 38.09C32.5018 38.09 32.1285 37.9467 31.8751 37.66C31.6285 37.3667 31.5051 36.9433 31.5051 36.39V30.95H32.3151V36.33C32.3151 37.0433 32.5985 37.4 33.1651 37.4C33.3318 37.4 33.4818 37.38 33.6151 37.34L33.5951 38.02C33.3885 38.0667 33.1885 38.09 32.9951 38.09ZM2.00086 52V44.95H4.79086C5.55086 44.95 6.13086 45.1267 6.53086 45.48C6.93753 45.8333 7.14086 46.3367 7.14086 46.99C7.14086 47.51 6.99753 47.9367 6.71086 48.27C6.43086 48.6033 6.03086 48.82 5.51086 48.92C5.81753 49.0267 6.08086 49.2867 6.30086 49.7L7.54086 52H6.64086L5.42086 49.74C5.26753 49.46 5.09086 49.27 4.89086 49.17C4.69086 49.07 4.42753 49.02 4.10086 49.02H2.82086V52H2.00086ZM2.82086 48.37H4.67086C5.77753 48.37 6.33086 47.91 6.33086 46.99C6.33086 46.0833 5.77753 45.63 4.67086 45.63H2.82086V48.37ZM10.6629 52.09C9.89622 52.09 9.28956 51.8667 8.84289 51.42C8.39622 50.9667 8.17289 50.3533 8.17289 49.58C8.17289 49.08 8.27289 48.64 8.47289 48.26C8.67289 47.8733 8.94622 47.5767 9.29289 47.37C9.64622 47.1567 10.0529 47.05 10.5129 47.05C11.1729 47.05 11.6896 47.2633 12.0629 47.69C12.4362 48.11 12.6229 48.69 12.6229 49.43V49.74H8.96289C8.98956 50.2933 9.14956 50.7167 9.44289 51.01C9.73622 51.2967 10.1429 51.44 10.6629 51.44C10.9562 51.44 11.2362 51.3967 11.5029 51.31C11.7696 51.2167 12.0229 51.0667 12.2629 50.86L12.5429 51.43C12.3229 51.6367 12.0429 51.8 11.7029 51.92C11.3629 52.0333 11.0162 52.09 10.6629 52.09ZM10.5329 47.65C10.0729 47.65 9.70956 47.7933 9.44289 48.08C9.17622 48.3667 9.01956 48.7433 8.97289 49.21H11.9229C11.9029 48.7167 11.7729 48.3333 11.5329 48.06C11.2996 47.7867 10.9662 47.65 10.5329 47.65ZM17.2952 53.8V51.15C17.1552 51.4367 16.9385 51.6667 16.6452 51.84C16.3585 52.0067 16.0252 52.09 15.6452 52.09C15.2118 52.09 14.8318 51.9867 14.5052 51.78C14.1852 51.5733 13.9352 51.2833 13.7552 50.91C13.5818 50.53 13.4952 50.0833 13.4952 49.57C13.4952 49.05 13.5818 48.6033 13.7552 48.23C13.9352 47.85 14.1852 47.56 14.5052 47.36C14.8318 47.1533 15.2118 47.05 15.6452 47.05C16.0318 47.05 16.3718 47.1367 16.6652 47.31C16.9585 47.4833 17.1752 47.72 17.3152 48.02V47.14H18.1052V53.8H17.2952ZM15.8152 51.44C16.2685 51.44 16.6318 51.28 16.9052 50.96C17.1785 50.6333 17.3152 50.17 17.3152 49.57C17.3152 48.9633 17.1785 48.5 16.9052 48.18C16.6318 47.86 16.2685 47.7 15.8152 47.7C15.3552 47.7 14.9885 47.86 14.7152 48.18C14.4485 48.5 14.3152 48.9633 14.3152 49.57C14.3152 50.17 14.4485 50.6333 14.7152 50.96C14.9885 51.28 15.3552 51.44 15.8152 51.44ZM21.3452 52.09C20.1786 52.09 19.5952 51.4467 19.5952 50.16V47.14H20.4052V50.15C20.4052 50.5833 20.4919 50.9033 20.6652 51.11C20.8452 51.3167 21.1252 51.42 21.5052 51.42C21.9186 51.42 22.2552 51.2833 22.5152 51.01C22.7752 50.73 22.9052 50.36 22.9052 49.9V47.14H23.7152V52H22.9252V51.18C22.7719 51.4733 22.5552 51.7 22.2752 51.86C22.0019 52.0133 21.6919 52.09 21.3452 52.09ZM27.4207 52.09C26.654 52.09 26.0474 51.8667 25.6007 51.42C25.154 50.9667 24.9307 50.3533 24.9307 49.58C24.9307 49.08 25.0307 48.64 25.2307 48.26C25.4307 47.8733 25.704 47.5767 26.0507 47.37C26.404 47.1567 26.8107 47.05 27.2707 47.05C27.9307 47.05 28.4474 47.2633 28.8207 47.69C29.194 48.11 29.3807 48.69 29.3807 49.43V49.74H25.7207C25.7474 50.2933 25.9074 50.7167 26.2007 51.01C26.494 51.2967 26.9007 51.44 27.4207 51.44C27.714 51.44 27.994 51.3967 28.2607 51.31C28.5274 51.2167 28.7807 51.0667 29.0207 50.86L29.3007 51.43C29.0807 51.6367 28.8007 51.8 28.4607 51.92C28.1207 52.0333 27.774 52.09 27.4207 52.09ZM27.2907 47.65C26.8307 47.65 26.4674 47.7933 26.2007 48.08C25.934 48.3667 25.7774 48.7433 25.7307 49.21H28.6807C28.6607 48.7167 28.5307 48.3333 28.2907 48.06C28.0574 47.7867 27.724 47.65 27.2907 47.65ZM32.193 52.09C31.813 52.09 31.453 52.0367 31.113 51.93C30.773 51.8233 30.493 51.6733 30.273 51.48L30.533 50.91C30.773 51.1033 31.0363 51.2467 31.323 51.34C31.6163 51.4267 31.913 51.47 32.213 51.47C32.593 51.47 32.8796 51.4 33.073 51.26C33.2663 51.12 33.363 50.93 33.363 50.69C33.363 50.5033 33.2996 50.3567 33.173 50.25C33.0463 50.1367 32.8463 50.05 32.573 49.99L31.663 49.79C30.8363 49.61 30.423 49.1833 30.423 48.51C30.423 48.07 30.5963 47.7167 30.943 47.45C31.2963 47.1833 31.7563 47.05 32.323 47.05C32.6563 47.05 32.973 47.1033 33.273 47.21C33.5796 47.31 33.833 47.46 34.033 47.66L33.763 48.23C33.5696 48.05 33.343 47.9133 33.083 47.82C32.8296 47.72 32.5763 47.67 32.323 47.67C31.9496 47.67 31.6663 47.7433 31.473 47.89C31.2796 48.0367 31.183 48.23 31.183 48.47C31.183 48.8433 31.4296 49.0833 31.923 49.19L32.833 49.38C33.2596 49.4733 33.583 49.6233 33.803 49.83C34.023 50.03 34.133 50.3033 34.133 50.65C34.133 51.0967 33.9563 51.45 33.603 51.71C33.2496 51.9633 32.7796 52.09 32.193 52.09ZM37.2686 52.09C36.6953 52.09 36.2653 51.94 35.9786 51.64C35.6919 51.3333 35.5486 50.8933 35.5486 50.32V47.77H34.5986V47.14H35.5486V45.65H36.3586V47.14H37.8986V47.77H36.3586V50.24C36.3586 50.62 36.4386 50.91 36.5986 51.11C36.7586 51.3033 37.0186 51.4 37.3786 51.4C37.4853 51.4 37.5919 51.3867 37.6986 51.36C37.8053 51.3333 37.9019 51.3067 37.9886 51.28L38.1286 51.9C38.0419 51.9467 37.9153 51.99 37.7486 52.03C37.5819 52.07 37.4219 52.09 37.2686 52.09ZM40.4547 52.09C40.0747 52.09 39.7147 52.0367 39.3747 51.93C39.0347 51.8233 38.7547 51.6733 38.5347 51.48L38.7947 50.91C39.0347 51.1033 39.298 51.2467 39.5847 51.34C39.878 51.4267 40.1747 51.47 40.4747 51.47C40.8547 51.47 41.1414 51.4 41.3347 51.26C41.528 51.12 41.6247 50.93 41.6247 50.69C41.6247 50.5033 41.5614 50.3567 41.4347 50.25C41.308 50.1367 41.108 50.05 40.8347 49.99L39.9247 49.79C39.098 49.61 38.6847 49.1833 38.6847 48.51C38.6847 48.07 38.858 47.7167 39.2047 47.45C39.558 47.1833 40.018 47.05 40.5847 47.05C40.918 47.05 41.2347 47.1033 41.5347 47.21C41.8414 47.31 42.0947 47.46 42.2947 47.66L42.0247 48.23C41.8314 48.05 41.6047 47.9133 41.3447 47.82C41.0914 47.72 40.838 47.67 40.5847 47.67C40.2114 47.67 39.928 47.7433 39.7347 47.89C39.5414 48.0367 39.4447 48.23 39.4447 48.47C39.4447 48.8433 39.6914 49.0833 40.1847 49.19L41.0947 49.38C41.5214 49.4733 41.8447 49.6233 42.0647 49.83C42.2847 50.03 42.3947 50.3033 42.3947 50.65C42.3947 51.0967 42.218 51.45 41.8647 51.71C41.5114 51.9633 41.0414 52.09 40.4547 52.09Z" fill="#958070"/>
    <g clip-path="url(#clip0_1_2)">
    <path d="M14 1.4375C14 0.642383 14.6331 0 15.4167 0H29.5833C30.3669 0 31 0.642383 31 1.4375V2.875C31 3.67012 30.3669 4.3125 29.5833 4.3125H15.4167C14.6331 4.3125 14 3.67012 14 2.875V1.4375ZM15.4167 5.75H29.5833V20.125C29.5833 21.7107 28.3128 23 26.75 23H18.25C16.6872 23 15.4167 21.7107 15.4167 20.125V18.6875H20.375C20.7646 18.6875 21.0833 18.3641 21.0833 17.9688C21.0833 17.5734 20.7646 17.25 20.375 17.25H15.4167V14.375H20.375C20.7646 14.375 21.0833 14.0516 21.0833 13.6562C21.0833 13.2609 20.7646 12.9375 20.375 12.9375H15.4167V10.0625H20.375C20.7646 10.0625 21.0833 9.73906 21.0833 9.34375C21.0833 8.94844 20.7646 8.625 20.375 8.625H15.4167V5.75Z" fill="#958070"/>
    </g>
    <defs>
    <clipPath id="clip0_1_2">
    <rect width="17" height="23" fill="white" transform="translate(14)"/>
    </clipPath>
    </defs>
    </svg>
    