<svg xmlns="http://www.w3.org/2000/svg" width="87" height="74" viewBox="0 0 87 74" fill="none">
    <path d="M50.318 73.0772C47.8082 73.0783 45.3744 72.2134 43.4248 70.6275C41.4751 69.0416 40.1282 66.8311 39.61 64.3669C39.0918 61.9026 39.4338 59.3345 40.5786 57.0932C41.7234 54.852 43.6014 53.074 45.8976 52.0574V9.99049C45.8976 8.81404 46.3633 7.68578 47.1923 6.85391C48.0213 6.02203 49.1456 5.55469 50.318 5.55469C51.4903 5.55469 52.6146 6.02203 53.4436 6.85391C54.2726 7.68578 54.7383 8.81404 54.7383 9.99049V52.0574C57.0348 53.0738 58.9131 54.8518 60.0581 57.0931C61.2031 59.3344 61.5452 61.9027 61.0269 64.3671C60.5087 66.8315 59.1616 69.042 57.2118 70.628C55.2619 72.2139 52.8279 73.0786 50.318 73.0772Z" fill="#CFD8DC"/>
    <path d="M50.3186 70.4183C48.3769 70.4192 46.4966 69.736 45.0057 68.4877C43.5148 67.2395 42.508 65.5055 42.1611 63.5883C41.8141 61.6712 42.1491 59.6927 43.1075 57.9981C44.0658 56.3035 45.5868 55.0005 47.4048 54.3163L48.5505 53.8836V9.99307C48.5505 9.52249 48.7368 9.07118 49.0683 8.73844C49.3999 8.40569 49.8497 8.21875 50.3186 8.21875C50.7875 8.21875 51.2373 8.40569 51.5689 8.73844C51.9005 9.07118 52.0867 9.52249 52.0867 9.99307V53.884L53.2324 54.3164C55.0506 55.0004 56.5718 56.3034 57.5303 57.998C58.4889 59.6927 58.8239 61.6713 58.4769 63.5886C58.13 65.5058 57.1231 67.2399 55.632 68.4882C54.141 69.7364 52.2604 70.4196 50.3186 70.4184V70.4183Z" fill="white"/>
    <path d="M53.2326 54.3163L52.0874 53.8842V33.2812H48.5511V53.8835L47.4055 54.3163C45.5868 55.0012 44.0655 56.3051 43.1069 58.0004C42.1482 59.6958 41.8131 61.6751 42.16 63.5931C42.5068 65.511 43.5136 67.2459 45.0048 68.4952C46.4959 69.7445 48.3767 70.4288 50.3192 70.4288C52.2617 70.4288 54.1426 69.7445 55.6337 68.4952C57.1249 67.2459 58.1317 65.511 58.4785 63.5931C58.8254 61.6751 58.4902 59.6958 57.5316 58.0004C56.573 56.3051 55.0517 55.0012 53.233 54.3163H53.2326Z" fill="#F76D00"/>
    <path d="M10.795 13.7873C10.795 13.203 10.9676 12.6318 11.2911 12.146C11.6146 11.6602 12.0744 11.2815 12.6123 11.0579C13.1503 10.8343 13.7422 10.7758 14.3132 10.8898C14.8843 11.0038 15.4089 11.2851 15.8206 11.6983C16.2323 12.1115 16.5127 12.6379 16.6263 13.2109C16.7399 13.784 16.6816 14.378 16.4588 14.9178C16.236 15.4576 15.8586 15.919 15.3745 16.2436C14.8904 16.5682 14.3212 16.7415 13.7389 16.7415C12.9582 16.7413 12.2095 16.4299 11.6575 15.876C11.1054 15.322 10.7952 14.5707 10.795 13.7873ZM13.7389 14.772C13.933 14.772 14.1227 14.7143 14.2841 14.6061C14.4455 14.4978 14.5713 14.3441 14.6455 14.1641C14.7198 13.9842 14.7392 13.7862 14.7014 13.5952C14.6635 13.4041 14.5701 13.2287 14.4328 13.0909C14.2956 12.9532 14.1207 12.8594 13.9304 12.8214C13.74 12.7834 13.5427 12.8029 13.3634 12.8775C13.1841 12.952 13.0308 13.0782 12.923 13.2402C12.8152 13.4021 12.7576 13.5925 12.7576 13.7873C12.7584 14.0482 12.862 14.2983 13.0459 14.4829C13.2298 14.6674 13.4791 14.7714 13.7391 14.7721L13.7389 14.772ZM17.1736 18.711C17.1736 18.4188 17.2599 18.1332 17.4217 17.8903C17.5834 17.6473 17.8133 17.458 18.0823 17.3462C18.3513 17.2344 18.6472 17.2051 18.9328 17.2621C19.2184 17.3191 19.4807 17.4598 19.6866 17.6663C19.8924 17.8729 20.0327 18.1361 20.0895 18.4227C20.1463 18.7092 20.1171 19.0063 20.0057 19.2762C19.8943 19.5461 19.7056 19.7768 19.4635 19.9392C19.2215 20.1015 18.9368 20.1881 18.6457 20.1881C18.4523 20.1886 18.2607 20.1507 18.0819 20.0766C17.9031 20.0026 17.7407 19.8938 17.6039 19.7566C17.4672 19.6193 17.3588 19.4564 17.285 19.277C17.2112 19.0976 17.1734 18.9053 17.1738 18.7113L17.1736 18.711ZM7.37233 4.61492L7.87528 5.11776C8.3557 5.59968 8.96772 5.92784 9.63397 6.06076C10.3002 6.19368 10.9908 6.1254 11.6184 5.86454C12.2459 5.60367 12.7824 5.16195 13.1598 4.5952C13.5373 4.02845 13.7388 3.36213 13.7389 2.68046V1.96949C13.7389 1.44715 13.9457 0.946204 14.3138 0.576852C14.6819 0.2075 15.181 0 15.7016 0C16.2221 0 16.7213 0.2075 17.0893 0.576852C17.4574 0.946204 17.6642 1.44715 17.6642 1.96949V2.68046C17.6643 3.36213 17.8659 4.02845 18.2433 4.5952C18.6208 5.16195 19.1572 5.60367 19.7848 5.86454C20.4123 6.1254 21.1029 6.19368 21.7692 6.06076C22.4354 5.92784 23.0474 5.59968 23.5278 5.11776L24.0308 4.61492C24.2129 4.43224 24.4291 4.28736 24.667 4.18853C24.9049 4.0897 25.1599 4.03886 25.4174 4.03892C25.6749 4.03897 25.9299 4.08992 26.1677 4.18886C26.4056 4.2878 26.6217 4.43279 26.8038 4.61554C26.9858 4.79829 27.1301 5.01524 27.2286 5.25398C27.3271 5.49273 27.3778 5.7486 27.3777 6.007C27.3777 6.26539 27.3269 6.52124 27.2283 6.75995C27.1297 6.99865 26.9852 7.21553 26.8031 7.3982L26.3063 7.90291C25.8257 8.38487 25.4984 8.99907 25.3657 9.66777C25.233 10.3365 25.301 11.0296 25.561 11.6596C25.821 12.2895 26.2615 12.8279 26.8265 13.2065C27.3915 13.5852 28.0557 13.7872 28.7352 13.787H29.4405C29.961 13.787 30.4602 13.9945 30.8282 14.3638C31.1963 14.7332 31.4031 15.2342 31.4031 15.7565C31.4031 16.2788 31.1963 16.7798 30.8282 17.1491C30.4602 17.5185 29.961 17.726 29.4405 17.726H28.7352C28.0557 17.7258 27.3915 17.9278 26.8265 18.3065C26.2615 18.6852 25.8211 19.2236 25.5611 19.8535C25.3011 20.4834 25.233 21.1766 25.3657 21.8453C25.4983 22.514 25.8257 23.1282 26.3063 23.6102L26.8031 24.1149C26.9864 24.2973 27.132 24.5142 27.2315 24.7532C27.331 24.9922 27.3825 25.2486 27.3831 25.5076C27.3836 25.7666 27.3332 26.0232 27.2346 26.2626C27.1361 26.502 26.9914 26.7195 26.8089 26.9027C26.6264 27.0858 26.4096 27.231 26.171 27.3299C25.9324 27.4288 25.6767 27.4794 25.4186 27.4788C25.1605 27.4783 24.905 27.4266 24.6669 27.3267C24.4287 27.2268 24.2126 27.0808 24.0308 26.8968L23.5278 26.3983C23.0476 25.916 22.4355 25.5875 21.7691 25.4544C21.1027 25.3212 20.412 25.3895 19.7842 25.6504C19.1565 25.9113 18.62 26.3533 18.2426 26.9203C17.8652 27.4873 17.6639 28.1539 17.6642 28.8357V29.5435C17.6642 30.0658 17.4574 30.5668 17.0893 30.9361C16.7213 31.3055 16.2221 31.513 15.7016 31.513C15.181 31.513 14.6819 31.3055 14.3138 30.9361C13.9457 30.5668 13.7389 30.0658 13.7389 29.5435V28.8357C13.7392 28.1539 13.5379 27.4873 13.1605 26.9203C12.7831 26.3533 12.2467 25.9113 11.6189 25.6504C10.9912 25.3895 10.3004 25.3212 9.63402 25.4544C8.96763 25.5875 8.35556 25.916 7.87528 26.3983L7.37233 26.8968C7.19061 27.081 6.97443 27.2273 6.7362 27.3274C6.49797 27.4275 6.24238 27.4793 5.98412 27.48C5.72586 27.4806 5.47002 27.4301 5.23128 27.3313C4.99254 27.2324 4.77561 27.0872 4.59295 26.904C4.41028 26.7208 4.26544 26.5032 4.16683 26.2636C4.06822 26.0241 4.01774 25.7674 4.01828 25.5082C4.01882 25.2491 4.0704 24.9926 4.17001 24.7534C4.26962 24.5143 4.41529 24.2973 4.59872 24.1149L5.09995 23.6102C5.58014 23.128 5.9071 22.5139 6.03954 21.8453C6.17197 21.1767 6.10389 20.4838 5.84393 19.854C5.58398 19.2242 5.14384 18.6859 4.57908 18.3072C4.01432 17.9284 3.35031 17.7262 2.67103 17.726H1.96265C1.44213 17.726 0.94289 17.5185 0.574826 17.1491C0.206763 16.7798 0 16.2788 0 15.7565C0 15.2342 0.206763 14.7332 0.574826 14.3638C0.94289 13.9945 1.44213 13.787 1.96265 13.787H2.67103C3.35031 13.7869 4.01431 13.5846 4.57908 13.2059C5.14384 12.8271 5.58403 12.2888 5.84399 11.6591C6.10395 11.0293 6.17203 10.3363 6.03959 9.66776C5.90715 8.99918 5.58016 8.38502 5.09995 7.90291L4.59872 7.3982C4.23092 7.02912 4.02432 6.52853 4.02432 6.00656C4.02432 5.48459 4.23092 4.984 4.59872 4.61492C4.96652 4.24583 5.46538 4.03848 5.98552 4.03848C6.50567 4.03848 7.00453 4.24583 7.37233 4.61492ZM24.9141 6.51184C24.1589 7.26853 23.1972 7.78363 22.1504 7.99206C21.1037 8.2005 20.0189 8.09292 19.033 7.68291C18.0471 7.27291 17.2045 6.57888 16.6115 5.6885C16.0186 4.79813 15.7019 3.75136 15.7016 2.68046C15.7011 3.75127 15.3845 4.79794 14.7915 5.68822C14.1986 6.57851 13.3561 7.27248 12.3703 7.68247C11.3845 8.09246 10.2998 8.20008 9.25307 7.99172C8.20639 7.78337 7.24477 7.26839 6.48961 6.51184C7.24366 7.26964 7.75693 8.23472 7.96463 9.28515C8.17234 10.3356 8.06517 11.4242 7.65658 12.4135C7.248 13.4028 6.55633 14.2484 5.66905 14.8434C4.78177 15.4385 3.73863 15.7562 2.67146 15.7566C3.73863 15.7569 4.78177 16.0747 5.66905 16.6697C6.55633 17.2647 7.248 18.1103 7.65658 19.0996C8.06517 20.0889 8.17234 21.1776 7.96463 22.228C7.75693 23.2784 7.24366 24.2435 6.48961 25.0013C7.24006 24.2444 8.19805 23.7288 9.24158 23.5202C10.2851 23.3116 11.3669 23.4195 12.3491 23.8301C13.3313 24.2408 14.1694 24.9355 14.7567 25.8259C15.344 26.7163 15.6539 27.762 15.6468 28.8297C15.6567 27.7566 15.9815 26.7102 16.5807 25.8213C17.1799 24.9324 18.0269 24.2405 19.0158 23.832C20.0047 23.4235 21.0916 23.3166 22.1408 23.5245C23.1899 23.7325 24.1547 24.2462 24.9145 25.0013C24.1605 24.2438 23.6471 23.279 23.4392 22.2288C23.2314 21.1786 23.3383 20.0901 23.7465 19.1009C24.1548 18.1117 24.846 17.266 25.7329 16.6708C26.6198 16.0756 27.6625 15.7574 28.7295 15.7566C27.6625 15.7557 26.6198 15.4376 25.7329 14.8424C24.846 14.2471 24.1548 13.4015 23.7465 12.4123C23.3383 11.423 23.2314 10.3346 23.4392 9.28439C23.6471 8.23421 24.1605 7.2694 24.9145 6.51184H24.9141Z" fill="#E0E0E0"/>
    <path d="M21.4715 59.6825C21.4715 59.3489 21.57 59.0229 21.7547 58.7455C21.9394 58.4682 22.2018 58.252 22.5089 58.1244C22.816 57.9967 23.1539 57.9633 23.4799 58.0284C23.8059 58.0935 24.1054 58.2541 24.3404 58.49C24.5754 58.7258 24.7355 59.0263 24.8004 59.3535C24.8652 59.6806 24.8319 60.0197 24.7047 60.3279C24.5775 60.6361 24.3621 60.8995 24.0857 61.0848C23.8093 61.2701 23.4845 61.369 23.1521 61.369C22.7064 61.3689 22.2789 61.1911 21.9638 60.8749C21.6486 60.5586 21.4716 60.1298 21.4715 59.6825ZM23.1521 60.2447C23.2629 60.2447 23.3712 60.2117 23.4633 60.1499C23.5554 60.0882 23.6272 60.0004 23.6696 59.8976C23.712 59.7949 23.7231 59.6819 23.7015 59.5728C23.6799 59.4638 23.6265 59.3636 23.5482 59.285C23.4698 59.2063 23.37 59.1528 23.2613 59.1311C23.1527 59.1094 23.04 59.1205 22.9376 59.1631C22.8353 59.2057 22.7478 59.2777 22.6862 59.3702C22.6247 59.4626 22.5918 59.5713 22.5918 59.6825C22.5922 59.8315 22.6514 59.9742 22.7564 60.0796C22.8614 60.1849 23.0036 60.2443 23.1521 60.2447ZM25.1127 62.4934C25.1127 62.3266 25.162 62.1635 25.2544 62.0248C25.3467 61.8862 25.478 61.7781 25.6315 61.7143C25.7851 61.6505 25.9541 61.6338 26.1171 61.6664C26.2801 61.6989 26.4299 61.7793 26.5474 61.8973C26.6649 62.0153 26.7449 62.1655 26.7773 62.3291C26.8096 62.4927 26.7929 62.6623 26.7292 62.8164C26.6656 62.9705 26.5578 63.1021 26.4196 63.1947C26.2813 63.2873 26.1188 63.3367 25.9526 63.3366C25.8422 63.3368 25.7329 63.3152 25.6308 63.2729C25.5288 63.2306 25.4361 63.1685 25.3581 63.0901C25.28 63.0118 25.2182 62.9187 25.1761 62.8163C25.134 62.7139 25.1124 62.6042 25.1127 62.4934ZM19.5178 54.4468L19.8048 54.7339C20.079 55.009 20.4284 55.1963 20.8087 55.2722C21.1891 55.3481 21.5832 55.3091 21.9415 55.1602C22.2997 55.0113 22.606 54.7591 22.8215 54.4356C23.0369 54.1121 23.152 53.7317 23.1521 53.3426V52.9368C23.1521 52.7892 23.181 52.643 23.2373 52.5066C23.2936 52.3701 23.3762 52.2462 23.4802 52.1418C23.5842 52.0374 23.7077 51.9546 23.8437 51.8981C23.9796 51.8416 24.1253 51.8125 24.2724 51.8125C24.4195 51.8125 24.5652 51.8416 24.7012 51.8981C24.8371 51.9546 24.9606 52.0374 25.0646 52.1418C25.1687 52.2462 25.2512 52.3701 25.3075 52.5066C25.3638 52.643 25.3928 52.7892 25.3928 52.9368V53.3426C25.3929 53.7317 25.5079 54.1121 25.7234 54.4356C25.9388 54.7591 26.245 55.0113 26.6033 55.1602C26.9615 55.3091 27.3558 55.3481 27.7361 55.2722C28.1164 55.1963 28.4658 55.009 28.7401 54.7339L29.0271 54.4468C29.2377 54.2397 29.5214 54.1243 29.8163 54.1258C30.1113 54.1273 30.3937 54.2456 30.6023 54.455C30.8108 54.6643 30.9285 54.9478 30.9299 55.2438C30.9313 55.5398 30.8162 55.8244 30.6096 56.0356L30.326 56.3238C30.0516 56.5989 29.8647 56.9495 29.789 57.3312C29.7132 57.713 29.7521 58.1087 29.9005 58.4683C30.0489 58.8279 30.3003 59.1352 30.6229 59.3514C30.9454 59.5675 31.3246 59.6828 31.7125 59.6827H32.1152C32.4106 59.6853 32.693 59.8049 32.901 60.0155C33.1089 60.2261 33.2256 60.5105 33.2256 60.807C33.2256 61.1035 33.1089 61.388 32.901 61.5985C32.693 61.8091 32.4106 61.9287 32.1152 61.9314H31.7125C31.3246 61.9312 30.9454 62.0465 30.6229 62.2627C30.3003 62.4789 30.0489 62.7862 29.9005 63.1458C29.7521 63.5054 29.7132 63.9011 29.789 64.2828C29.8647 64.6645 30.0516 65.0151 30.326 65.2902L30.6096 65.5784C30.8156 65.7898 30.9302 66.0741 30.9285 66.3698C30.9269 66.6655 30.8091 66.9485 30.6008 67.1576C30.3925 67.3667 30.1104 67.4848 29.8157 67.4865C29.5211 67.4881 29.2377 67.3731 29.0271 67.1664L28.7401 66.8818C28.4659 66.6065 28.1165 66.419 27.7361 66.343C27.3557 66.267 26.9614 66.3059 26.603 66.4549C26.2447 66.6038 25.9384 66.8561 25.723 67.1797C25.5076 67.5034 25.3926 67.8839 25.3928 68.2731V68.6772C25.3928 68.8249 25.3638 68.9711 25.3075 69.1075C25.2512 69.2439 25.1687 69.3678 25.0646 69.4722C24.9606 69.5766 24.8371 69.6595 24.7012 69.716C24.5652 69.7725 24.4195 69.8015 24.2724 69.8015C24.1253 69.8015 23.9796 69.7725 23.8437 69.716C23.7077 69.6595 23.5842 69.5766 23.4802 69.4722C23.3762 69.3678 23.2936 69.2439 23.2373 69.1075C23.181 68.9711 23.1521 68.8249 23.1521 68.6772V68.2731C23.1522 67.8839 23.0373 67.5034 22.8218 67.1797C22.6064 66.8561 22.3001 66.6038 21.9418 66.4549C21.5834 66.3059 21.1891 66.267 20.8087 66.343C20.4283 66.419 20.0789 66.6065 19.8048 66.8818L19.5178 67.1664C19.3072 67.3737 19.0236 67.4892 18.7287 67.4879C18.4337 67.4865 18.1512 67.3683 17.9426 67.1591C17.734 66.9498 17.616 66.6664 17.6145 66.3704C17.613 66.0744 17.728 65.7898 17.9344 65.5784L18.2205 65.2902C18.4946 65.015 18.6813 64.6644 18.7569 64.2828C18.8325 63.9011 18.7937 63.5056 18.6453 63.146C18.4969 62.7865 18.2456 62.4793 17.9232 62.2631C17.6008 62.0468 17.2218 61.9314 16.834 61.9314H16.4296C16.1342 61.9287 15.8517 61.8091 15.6438 61.5985C15.4358 61.388 15.3191 61.1035 15.3191 60.807C15.3191 60.5105 15.4358 60.2261 15.6438 60.0155C15.8517 59.8049 16.1342 59.6853 16.4296 59.6827H16.834C17.2218 59.6826 17.6008 59.5672 17.9232 59.351C18.2456 59.1348 18.4969 58.8275 18.6453 58.468C18.7937 58.1085 18.8325 57.7129 18.7569 57.3312C18.6813 56.9496 18.4946 56.599 18.2205 56.3238L17.9344 56.0356C17.7273 55.8244 17.6118 55.5395 17.613 55.2432C17.6142 54.9468 17.7321 54.6629 17.9409 54.4533C18.1498 54.2437 18.4327 54.1255 18.728 54.1243C19.0234 54.123 19.3072 54.239 19.5178 54.4468ZM29.5313 55.5297C29.1002 55.9617 28.5512 56.2557 27.9537 56.3747C27.3561 56.4937 26.7369 56.4323 26.1741 56.1982C25.6113 55.9642 25.1304 55.568 24.7919 55.0597C24.4534 54.5514 24.2726 53.9539 24.2724 53.3426C24.2722 53.9539 24.0914 54.5514 23.753 55.0597C23.4145 55.568 22.9335 55.9642 22.3707 56.1982C21.8079 56.4323 21.1886 56.4937 20.5911 56.3747C19.9936 56.2557 19.4446 55.9617 19.0136 55.5297C19.444 55.9623 19.737 56.5132 19.8555 57.1129C19.9741 57.7125 19.9129 58.3339 19.6797 58.8987C19.4464 59.4634 19.0516 59.9461 18.5451 60.2858C18.0386 60.6254 17.4432 60.8068 16.834 60.8071C17.4432 60.8073 18.0386 60.9886 18.5451 61.3283C19.0517 61.668 19.4464 62.1506 19.6797 62.7154C19.9129 63.2801 19.9742 63.9016 19.8556 64.5012C19.737 65.1008 19.444 65.6518 19.0136 66.0843C19.442 65.6522 19.9888 65.3579 20.5845 65.2388C21.1802 65.1198 21.7978 65.1814 22.3584 65.4158C22.9191 65.6502 23.3976 66.0468 23.7328 66.5551C24.0681 67.0633 24.2449 67.6603 24.2409 68.2698C24.2465 67.6572 24.4319 67.0599 24.774 66.5524C25.116 66.045 25.5995 65.65 26.164 65.4168C26.7285 65.1836 27.349 65.1226 27.9479 65.2413C28.5468 65.36 29.0975 65.6533 29.5313 66.0843C29.1009 65.6519 28.8079 65.1011 28.6892 64.5016C28.5706 63.9022 28.6316 63.2808 28.8647 62.7162C29.0977 62.1515 29.4922 61.6688 29.9985 61.329C30.5048 60.9892 31.1001 60.8076 31.7091 60.8071C31.1 60.8066 30.5047 60.625 29.9985 60.2852C29.4922 59.9454 29.0976 59.4627 28.8646 58.898C28.6315 58.3333 28.5705 57.7119 28.6891 57.1124C28.8078 56.5129 29.1009 55.9622 29.5313 55.5297Z" fill="#E0E0E0"/>
    <path d="M75.1367 20.8231C75.1367 20.4896 75.2353 20.1635 75.42 19.8862C75.6046 19.6088 75.8671 19.3927 76.1742 19.265C76.4812 19.1374 76.8192 19.104 77.1452 19.169C77.4712 19.2341 77.7707 19.3947 78.0057 19.6306C78.2407 19.8665 78.4008 20.167 78.4656 20.4941C78.5305 20.8213 78.4972 21.1603 78.37 21.4685C78.2428 21.7767 78.0274 22.0401 77.751 22.2254C77.4746 22.4107 77.1497 22.5096 76.8173 22.5096C76.3717 22.5095 75.9442 22.3318 75.6291 22.0155C75.3139 21.6993 75.1369 21.2704 75.1367 20.8231ZM76.8173 21.3853C76.9282 21.3853 77.0365 21.3523 77.1286 21.2906C77.2207 21.2288 77.2925 21.141 77.3349 21.0383C77.3773 20.9355 77.3884 20.8225 77.3668 20.7134C77.3452 20.6044 77.2918 20.5042 77.2135 20.4256C77.1351 20.347 77.0353 20.2934 76.9266 20.2717C76.8179 20.25 76.7053 20.2612 76.6029 20.3037C76.5005 20.3463 76.4131 20.4183 76.3515 20.5108C76.29 20.6032 76.2571 20.7119 76.2571 20.8231C76.2575 20.9721 76.3167 21.1149 76.4217 21.2202C76.5266 21.3255 76.6689 21.3849 76.8173 21.3853ZM78.778 23.634C78.778 23.4672 78.8273 23.3042 78.9197 23.1655C79.012 23.0268 79.1433 22.9187 79.2968 22.8549C79.4504 22.7911 79.6194 22.7744 79.7824 22.807C79.9454 22.8396 80.0952 22.9199 80.2127 23.0379C80.3302 23.1559 80.4102 23.3062 80.4425 23.4698C80.4749 23.6334 80.4582 23.8029 80.3945 23.957C80.3308 24.1111 80.2231 24.2428 80.0848 24.3354C79.9466 24.428 79.7841 24.4773 79.6179 24.4772C79.5075 24.4775 79.3981 24.4558 79.2961 24.4135C79.1941 24.3712 79.1014 24.3091 79.0234 24.2307C78.9453 24.1524 78.8835 24.0593 78.8414 23.9569C78.7993 23.8545 78.7777 23.7448 78.778 23.634ZM73.183 15.5875L73.47 15.8745C73.7443 16.1496 74.0937 16.337 74.474 16.4128C74.8543 16.4887 75.2485 16.4497 75.6068 16.3008C75.965 16.1519 76.2713 15.8998 76.4867 15.5762C76.7022 15.2527 76.8173 14.8723 76.8173 14.4832V14.0774C76.8173 13.9298 76.8463 13.7836 76.9026 13.6472C76.9589 13.5108 77.0414 13.3868 77.1455 13.2824C77.2495 13.178 77.373 13.0952 77.5089 13.0387C77.6449 12.9822 77.7906 12.9531 77.9377 12.9531C78.0848 12.9531 78.2305 12.9822 78.3665 13.0387C78.5024 13.0952 78.6259 13.178 78.7299 13.2824C78.834 13.3868 78.9165 13.5108 78.9728 13.6472C79.0291 13.7836 79.0581 13.9298 79.0581 14.0774V14.4832C79.0581 14.8723 79.1732 15.2527 79.3887 15.5762C79.6041 15.8998 79.9103 16.1519 80.2686 16.3008C80.6268 16.4497 81.0211 16.4887 81.4014 16.4128C81.7817 16.337 82.1311 16.1496 82.4054 15.8745L82.6924 15.5875C82.903 15.3803 83.1867 15.2649 83.4816 15.2664C83.7766 15.2679 84.059 15.3862 84.2675 15.5956C84.4761 15.8049 84.5938 16.0884 84.5952 16.3844C84.5965 16.6804 84.4814 16.965 84.2749 17.1763L83.9913 17.4644C83.7169 17.7395 83.53 18.0901 83.4543 18.4719C83.3785 18.8536 83.4174 19.2493 83.5658 19.6089C83.7142 19.9685 83.9656 20.2758 84.2882 20.492C84.6107 20.7082 84.9899 20.8235 85.3777 20.8233H85.7804C86.0759 20.8259 86.3583 20.9456 86.5662 21.1561C86.7742 21.3667 86.8909 21.6512 86.8909 21.9476C86.8909 22.2441 86.7742 22.5286 86.5662 22.7392C86.3583 22.9497 86.0759 23.0694 85.7804 23.072H85.3777C84.9899 23.0718 84.6107 23.1871 84.2882 23.4033C83.9656 23.6195 83.7142 23.9268 83.5658 24.2864C83.4174 24.646 83.3785 25.0417 83.4543 25.4234C83.53 25.8051 83.7169 26.1557 83.9913 26.4309L84.2749 26.719C84.4809 26.9304 84.5955 27.2148 84.5938 27.5104C84.5922 27.8061 84.4744 28.0892 84.2661 28.2982C84.0577 28.5073 83.7757 28.6255 83.481 28.6271C83.1864 28.6288 82.903 28.5138 82.6924 28.307L82.4054 28.0224C82.1312 27.7471 81.7818 27.5596 81.4014 27.4836C81.021 27.4076 80.6266 27.4465 80.2683 27.5955C79.91 27.7444 79.6037 27.9967 79.3883 28.3204C79.1729 28.644 79.0579 29.0245 79.0581 29.4138V29.8179C79.0581 29.9655 79.0291 30.1117 78.9728 30.2481C78.9165 30.3845 78.834 30.5085 78.7299 30.6129C78.6259 30.7173 78.5024 30.8001 78.3665 30.8566C78.2305 30.9131 78.0848 30.9422 77.9377 30.9422C77.7906 30.9422 77.6449 30.9131 77.5089 30.8566C77.373 30.8001 77.2495 30.7173 77.1455 30.6129C77.0414 30.5085 76.9589 30.3845 76.9026 30.2481C76.8463 30.1117 76.8173 29.9655 76.8173 29.8179V29.4138C76.8175 29.0245 76.7026 28.644 76.4871 28.3204C76.2717 27.9967 75.9654 27.7444 75.607 27.5955C75.2487 27.4465 74.8544 27.4076 74.474 27.4836C74.0936 27.5596 73.7442 27.7471 73.47 28.0224L73.183 28.307C72.9725 28.5143 72.6889 28.6298 72.3939 28.6285C72.099 28.6271 71.8165 28.509 71.6079 28.2997C71.3992 28.0905 71.2813 27.807 71.2798 27.511C71.2783 27.215 71.3933 26.9304 71.5997 26.719L71.8858 26.4309C72.1599 26.1557 72.3465 25.8051 72.4222 25.4234C72.4978 25.0418 72.459 24.6462 72.3106 24.2867C72.1622 23.9272 71.9109 23.6199 71.5885 23.4037C71.2661 23.1875 70.887 23.072 70.4993 23.072H70.0949C69.7995 23.0694 69.517 22.9497 69.309 22.7392C69.1011 22.5286 68.9844 22.2441 68.9844 21.9476C68.9844 21.6512 69.1011 21.3667 69.309 21.1561C69.517 20.9456 69.7995 20.8259 70.0949 20.8233H70.4993C70.887 20.8232 71.2661 20.7078 71.5885 20.4916C71.9109 20.2754 72.1622 19.9681 72.3106 19.6086C72.459 19.2491 72.4978 18.8535 72.4222 18.4719C72.3465 18.0902 72.1599 17.7396 71.8858 17.4644L71.5997 17.1763C71.3926 16.965 71.2771 16.6802 71.2783 16.3838C71.2795 16.0874 71.3974 15.8035 71.6062 15.5939C71.815 15.3844 72.098 15.2661 72.3933 15.2649C72.6886 15.2637 72.9725 15.3796 73.183 15.5875ZM83.1966 16.6703C82.7655 17.1023 82.2165 17.3963 81.619 17.5153C81.0214 17.6343 80.4022 17.5729 79.8394 17.3388C79.2766 17.1048 78.7956 16.7086 78.4572 16.2003C78.1187 15.6921 77.9379 15.0945 77.9377 14.4832C77.9375 15.0945 77.7567 15.6921 77.4182 16.2003C77.0798 16.7086 76.5987 17.1048 76.036 17.3388C75.4732 17.5729 74.8539 17.6343 74.2564 17.5153C73.6589 17.3963 73.1099 17.1023 72.6788 16.6703C73.1093 17.1029 73.4023 17.6538 73.5208 18.2535C73.6394 18.8531 73.5782 19.4746 73.345 20.0393C73.1117 20.604 72.7169 21.0867 72.2104 21.4264C71.7039 21.7661 71.1085 21.9475 70.4993 21.9477C71.1085 21.9479 71.7039 22.1293 72.2104 22.4689C72.7169 22.8086 73.1117 23.2913 73.345 23.856C73.5782 24.4207 73.6394 25.0422 73.5209 25.6418C73.4023 26.2415 73.1093 26.7924 72.6788 27.225C73.1072 26.7929 73.6541 26.4985 74.2498 26.3795C74.8455 26.2604 75.463 26.322 76.0237 26.5564C76.5844 26.7908 77.0629 27.1874 77.3981 27.6957C77.7334 28.204 77.9102 28.8009 77.9061 29.4104C77.9118 28.7978 78.0972 28.2005 78.4393 27.6931C78.7813 27.1857 79.2648 26.7907 79.8293 26.5575C80.3938 26.3243 81.0143 26.2632 81.6132 26.3819C82.2121 26.5007 82.7628 26.7939 83.1966 27.225C82.7662 26.7925 82.4732 26.2418 82.3545 25.6423C82.2359 25.0428 82.2969 24.4215 82.5299 23.8568C82.763 23.2921 83.1575 22.8094 83.6638 22.4696C84.1701 22.1298 84.7653 21.9482 85.3744 21.9477C84.7653 21.9472 84.17 21.7656 83.6637 21.4258C83.1575 21.086 82.7629 20.6033 82.5298 20.0386C82.2968 19.4739 82.2358 18.8525 82.3544 18.253C82.4731 17.6536 82.7661 17.1028 83.1966 16.6703Z" fill="#E0E0E0"/>
  </svg>