<svg width="48" height="53" viewBox="0 0 48 53" fill="none" xmlns="http://www.w3.org/2000/svg">
    <path d="M3.6166 35V28.66H1.0566V27.95H7.0066V28.66H4.4466V35H3.6166ZM7.03051 35V30.14H7.82051V31.01C8.08051 30.4233 8.61384 30.1 9.42051 30.04L9.71051 30.01L9.77051 30.71L9.26051 30.77C8.80051 30.81 8.45051 30.9567 8.21051 31.21C7.97051 31.4567 7.85051 31.7967 7.85051 32.23V35H7.03051ZM12.7459 35.09C11.9792 35.09 11.3726 34.8667 10.9259 34.42C10.4792 33.9667 10.2559 33.3533 10.2559 32.58C10.2559 32.08 10.3559 31.64 10.5559 31.26C10.7559 30.8733 11.0292 30.5767 11.3759 30.37C11.7292 30.1567 12.1359 30.05 12.5959 30.05C13.2559 30.05 13.7726 30.2633 14.1459 30.69C14.5192 31.11 14.7059 31.69 14.7059 32.43V32.74H11.0459C11.0726 33.2933 11.2326 33.7167 11.5259 34.01C11.8192 34.2967 12.2259 34.44 12.7459 34.44C13.0392 34.44 13.3192 34.3967 13.5859 34.31C13.8526 34.2167 14.1059 34.0667 14.3459 33.86L14.6259 34.43C14.4059 34.6367 14.1259 34.8 13.7859 34.92C13.4459 35.0333 13.0992 35.09 12.7459 35.09ZM12.6159 30.65C12.1559 30.65 11.7926 30.7933 11.5259 31.08C11.2592 31.3667 11.1026 31.7433 11.0559 32.21H14.0059C13.9859 31.7167 13.8559 31.3333 13.6159 31.06C13.3826 30.7867 13.0492 30.65 12.6159 30.65ZM17.4082 35.09C17.0748 35.09 16.7748 35.0267 16.5082 34.9C16.2482 34.7667 16.0415 34.5867 15.8882 34.36C15.7348 34.1333 15.6582 33.88 15.6582 33.6C15.6582 33.2467 15.7482 32.9667 15.9282 32.76C16.1148 32.5533 16.4182 32.4067 16.8382 32.32C17.2648 32.2267 17.8448 32.18 18.5782 32.18H18.8982V31.87C18.8982 31.4567 18.8115 31.16 18.6382 30.98C18.4715 30.7933 18.2015 30.7 17.8282 30.7C17.5348 30.7 17.2515 30.7433 16.9782 30.83C16.7048 30.91 16.4248 31.0433 16.1382 31.23L15.8582 30.64C16.1115 30.46 16.4182 30.3167 16.7782 30.21C17.1448 30.1033 17.4948 30.05 17.8282 30.05C18.4548 30.05 18.9182 30.2033 19.2182 30.51C19.5248 30.8167 19.6782 31.2933 19.6782 31.94V35H18.9182V34.16C18.7915 34.4467 18.5948 34.6733 18.3282 34.84C18.0682 35.0067 17.7615 35.09 17.4082 35.09ZM17.5382 34.48C17.9382 34.48 18.2648 34.3433 18.5182 34.07C18.7715 33.79 18.8982 33.4367 18.8982 33.01V32.71H18.5882C18.0482 32.71 17.6215 32.7367 17.3082 32.79C17.0015 32.8367 16.7848 32.9233 16.6582 33.05C16.5382 33.17 16.4782 33.3367 16.4782 33.55C16.4782 33.8233 16.5715 34.0467 16.7582 34.22C16.9515 34.3933 17.2115 34.48 17.5382 34.48ZM23.1309 35.09C22.5576 35.09 22.1276 34.94 21.8409 34.64C21.5542 34.3333 21.4109 33.8933 21.4109 33.32V30.77H20.4609V30.14H21.4109V28.65H22.2209V30.14H23.7609V30.77H22.2209V33.24C22.2209 33.62 22.3009 33.91 22.4609 34.11C22.6209 34.3033 22.8809 34.4 23.2409 34.4C23.3476 34.4 23.4542 34.3867 23.5609 34.36C23.6676 34.3333 23.7642 34.3067 23.8509 34.28L23.9909 34.9C23.9042 34.9467 23.7776 34.99 23.6109 35.03C23.4442 35.07 23.2842 35.09 23.1309 35.09ZM24.697 35V30.14H25.487V30.96C25.6337 30.6667 25.837 30.4433 26.097 30.29C26.357 30.13 26.6603 30.05 27.007 30.05C27.767 30.05 28.2537 30.38 28.467 31.04C28.6137 30.7333 28.8303 30.4933 29.117 30.32C29.4037 30.14 29.7337 30.05 30.107 30.05C31.187 30.05 31.727 30.69 31.727 31.97V35H30.917V32.01C30.917 31.5633 30.837 31.2367 30.677 31.03C30.5237 30.8167 30.267 30.71 29.907 30.71C29.5137 30.71 29.2003 30.85 28.967 31.13C28.7337 31.41 28.617 31.7833 28.617 32.25V35H27.807V32.01C27.807 31.5633 27.727 31.2367 27.567 31.03C27.4137 30.8167 27.157 30.71 26.797 30.71C26.397 30.71 26.0803 30.85 25.847 31.13C25.6203 31.41 25.507 31.7833 25.507 32.25V35H24.697ZM35.4314 35.09C34.6648 35.09 34.0581 34.8667 33.6114 34.42C33.1648 33.9667 32.9414 33.3533 32.9414 32.58C32.9414 32.08 33.0414 31.64 33.2414 31.26C33.4414 30.8733 33.7148 30.5767 34.0614 30.37C34.4148 30.1567 34.8214 30.05 35.2814 30.05C35.9414 30.05 36.4581 30.2633 36.8314 30.69C37.2048 31.11 37.3914 31.69 37.3914 32.43V32.74H33.7314C33.7581 33.2933 33.9181 33.7167 34.2114 34.01C34.5048 34.2967 34.9114 34.44 35.4314 34.44C35.7248 34.44 36.0048 34.3967 36.2714 34.31C36.5381 34.2167 36.7914 34.0667 37.0314 33.86L37.3114 34.43C37.0914 34.6367 36.8114 34.8 36.4714 34.92C36.1314 35.0333 35.7848 35.09 35.4314 35.09ZM35.3014 30.65C34.8414 30.65 34.4781 30.7933 34.2114 31.08C33.9448 31.3667 33.7881 31.7433 33.7414 32.21H36.6914C36.6714 31.7167 36.5414 31.3333 36.3014 31.06C36.0681 30.7867 35.7348 30.65 35.3014 30.65ZM38.5637 35V30.14H39.3537V30.97C39.5137 30.6633 39.7404 30.4333 40.0337 30.28C40.327 30.1267 40.657 30.05 41.0237 30.05C42.177 30.05 42.7537 30.69 42.7537 31.97V35H41.9437V32.02C41.9437 31.5667 41.8537 31.2367 41.6737 31.03C41.5004 30.8167 41.2204 30.71 40.8337 30.71C40.387 30.71 40.0304 30.85 39.7637 31.13C39.5037 31.4033 39.3737 31.77 39.3737 32.23V35H38.5637ZM46.1973 35.09C45.624 35.09 45.194 34.94 44.9073 34.64C44.6206 34.3333 44.4773 33.8933 44.4773 33.32V30.77H43.5273V30.14H44.4773V28.65H45.2873V30.14H46.8273V30.77H45.2873V33.24C45.2873 33.62 45.3673 33.91 45.5273 34.11C45.6873 34.3033 45.9473 34.4 46.3073 34.4C46.414 34.4 46.5206 34.3867 46.6273 34.36C46.734 34.3333 46.8306 34.3067 46.9173 34.28L47.0573 34.9C46.9706 34.9467 46.844 34.99 46.6773 35.03C46.5106 35.07 46.3506 35.09 46.1973 35.09ZM3.17566 49V41.95H5.96566C6.72566 41.95 7.30566 42.1333 7.70566 42.5C8.11233 42.8667 8.31566 43.39 8.31566 44.07C8.31566 44.7433 8.11233 45.2667 7.70566 45.64C7.30566 46.0067 6.72566 46.19 5.96566 46.19H3.99566V49H3.17566ZM3.99566 45.5H5.86566C6.959 45.5 7.50566 45.0233 7.50566 44.07C7.50566 43.11 6.959 42.63 5.86566 42.63H3.99566V45.5ZM9.29613 49V44.14H10.0861V45.01C10.3461 44.4233 10.8795 44.1 11.6861 44.04L11.9761 44.01L12.0361 44.71L11.5261 44.77C11.0661 44.81 10.7161 44.9567 10.4761 45.21C10.2361 45.4567 10.1161 45.7967 10.1161 46.23V49H9.29613ZM14.8415 49.09C14.3682 49.09 13.9582 48.9867 13.6115 48.78C13.2649 48.5733 12.9949 48.2833 12.8015 47.91C12.6149 47.53 12.5215 47.0833 12.5215 46.57C12.5215 46.0567 12.6149 45.6133 12.8015 45.24C12.9949 44.86 13.2649 44.5667 13.6115 44.36C13.9582 44.1533 14.3682 44.05 14.8415 44.05C15.3082 44.05 15.7149 44.1533 16.0615 44.36C16.4149 44.5667 16.6849 44.86 16.8715 45.24C17.0649 45.6133 17.1615 46.0567 17.1615 46.57C17.1615 47.0833 17.0649 47.53 16.8715 47.91C16.6849 48.2833 16.4149 48.5733 16.0615 48.78C15.7149 48.9867 15.3082 49.09 14.8415 49.09ZM14.8415 48.44C15.2949 48.44 15.6582 48.28 15.9315 47.96C16.2049 47.6333 16.3415 47.17 16.3415 46.57C16.3415 45.9633 16.2049 45.5 15.9315 45.18C15.6582 44.86 15.2949 44.7 14.8415 44.7C14.3815 44.7 14.0149 44.86 13.7415 45.18C13.4749 45.5 13.3415 45.9633 13.3415 46.57C13.3415 47.17 13.4749 47.6333 13.7415 47.96C14.0149 48.28 14.3815 48.44 14.8415 48.44ZM20.5282 50.89C20.1082 50.89 19.7115 50.8333 19.3382 50.72C18.9715 50.6133 18.6448 50.45 18.3582 50.23L18.6282 49.64C18.9282 49.8533 19.2248 50.0067 19.5182 50.1C19.8182 50.1933 20.1415 50.24 20.4882 50.24C21.4482 50.24 21.9282 49.7467 21.9282 48.76V47.9C21.7882 48.2067 21.5682 48.45 21.2682 48.63C20.9748 48.8033 20.6382 48.89 20.2582 48.89C19.8115 48.89 19.4248 48.7867 19.0982 48.58C18.7715 48.3733 18.5182 48.09 18.3382 47.73C18.1648 47.3633 18.0782 46.94 18.0782 46.46C18.0782 45.98 18.1648 45.56 18.3382 45.2C18.5182 44.8333 18.7715 44.55 19.0982 44.35C19.4248 44.15 19.8115 44.05 20.2582 44.05C20.6382 44.05 20.9748 44.1367 21.2682 44.31C21.5682 44.4833 21.7882 44.72 21.9282 45.02V44.14H22.7182V48.65C22.7182 49.3967 22.5315 49.9567 22.1582 50.33C21.7915 50.7033 21.2482 50.89 20.5282 50.89ZM20.4082 48.23C20.8748 48.23 21.2448 48.07 21.5182 47.75C21.7915 47.43 21.9282 47 21.9282 46.46C21.9282 45.92 21.7915 45.4933 21.5182 45.18C21.2448 44.86 20.8748 44.7 20.4082 44.7C19.9482 44.7 19.5815 44.86 19.3082 45.18C19.0348 45.4933 18.8982 45.92 18.8982 46.46C18.8982 47 19.0348 47.43 19.3082 47.75C19.5815 48.07 19.9482 48.23 20.4082 48.23ZM24.2375 49V44.14H25.0275V45.01C25.2875 44.4233 25.8209 44.1 26.6275 44.04L26.9175 44.01L26.9775 44.71L26.4675 44.77C26.0075 44.81 25.6575 44.9567 25.4175 45.21C25.1775 45.4567 25.0575 45.7967 25.0575 46.23V49H24.2375ZM29.3027 49.09C28.9694 49.09 28.6694 49.0267 28.4027 48.9C28.1427 48.7667 27.936 48.5867 27.7827 48.36C27.6294 48.1333 27.5527 47.88 27.5527 47.6C27.5527 47.2467 27.6427 46.9667 27.8227 46.76C28.0094 46.5533 28.3127 46.4067 28.7327 46.32C29.1594 46.2267 29.7394 46.18 30.4727 46.18H30.7927V45.87C30.7927 45.4567 30.706 45.16 30.5327 44.98C30.366 44.7933 30.096 44.7 29.7227 44.7C29.4294 44.7 29.146 44.7433 28.8727 44.83C28.5994 44.91 28.3194 45.0433 28.0327 45.23L27.7527 44.64C28.006 44.46 28.3127 44.3167 28.6727 44.21C29.0394 44.1033 29.3894 44.05 29.7227 44.05C30.3494 44.05 30.8127 44.2033 31.1127 44.51C31.4194 44.8167 31.5727 45.2933 31.5727 45.94V49H30.8127V48.16C30.686 48.4467 30.4894 48.6733 30.2227 48.84C29.9627 49.0067 29.656 49.09 29.3027 49.09ZM29.4327 48.48C29.8327 48.48 30.1594 48.3433 30.4127 48.07C30.666 47.79 30.7927 47.4367 30.7927 47.01V46.71H30.4827C29.9427 46.71 29.516 46.7367 29.2027 46.79C28.896 46.8367 28.6794 46.9233 28.5527 47.05C28.4327 47.17 28.3727 47.3367 28.3727 47.55C28.3727 47.8233 28.466 48.0467 28.6527 48.22C28.846 48.3933 29.106 48.48 29.4327 48.48ZM33.0954 49V44.14H33.8854V44.96C34.0321 44.6667 34.2354 44.4433 34.4954 44.29C34.7554 44.13 35.0588 44.05 35.4054 44.05C36.1654 44.05 36.6521 44.38 36.8654 45.04C37.0121 44.7333 37.2288 44.4933 37.5154 44.32C37.8021 44.14 38.1321 44.05 38.5054 44.05C39.5854 44.05 40.1254 44.69 40.1254 45.97V49H39.3154V46.01C39.3154 45.5633 39.2354 45.2367 39.0754 45.03C38.9221 44.8167 38.6654 44.71 38.3054 44.71C37.9121 44.71 37.5988 44.85 37.3654 45.13C37.1321 45.41 37.0154 45.7833 37.0154 46.25V49H36.2054V46.01C36.2054 45.5633 36.1254 45.2367 35.9654 45.03C35.8121 44.8167 35.5554 44.71 35.1954 44.71C34.7954 44.71 34.4788 44.85 34.2454 45.13C34.0188 45.41 33.9054 45.7833 33.9054 46.25V49H33.0954ZM43.2799 49.09C42.8999 49.09 42.5399 49.0367 42.1999 48.93C41.8599 48.8233 41.5799 48.6733 41.3599 48.48L41.6199 47.91C41.8599 48.1033 42.1232 48.2467 42.4099 48.34C42.7032 48.4267 42.9999 48.47 43.2999 48.47C43.6799 48.47 43.9665 48.4 44.1599 48.26C44.3532 48.12 44.4499 47.93 44.4499 47.69C44.4499 47.5033 44.3865 47.3567 44.2599 47.25C44.1332 47.1367 43.9332 47.05 43.6599 46.99L42.7499 46.79C41.9232 46.61 41.5099 46.1833 41.5099 45.51C41.5099 45.07 41.6832 44.7167 42.0299 44.45C42.3832 44.1833 42.8432 44.05 43.4099 44.05C43.7432 44.05 44.0599 44.1033 44.3599 44.21C44.6665 44.31 44.9199 44.46 45.1199 44.66L44.8499 45.23C44.6565 45.05 44.4299 44.9133 44.1699 44.82C43.9165 44.72 43.6632 44.67 43.4099 44.67C43.0365 44.67 42.7532 44.7433 42.5599 44.89C42.3665 45.0367 42.2699 45.23 42.2699 45.47C42.2699 45.8433 42.5165 46.0833 43.0099 46.19L43.9199 46.38C44.3465 46.4733 44.6699 46.6233 44.8899 46.83C45.1099 47.03 45.2199 47.3033 45.2199 47.65C45.2199 48.0967 45.0432 48.45 44.6899 48.71C44.3365 48.9633 43.8665 49.09 43.2799 49.09Z" fill="#958070"/>
    <path d="M19.6429 0C18.3033 0 17.2143 1.12109 17.2143 2.5V11.25H21.4643C21.6958 11.25 21.9045 11.3828 22.0069 11.5937L22.6786 12.9766L24.5645 9.09375C24.667 8.88281 24.8795 8.75 25.1071 8.75C25.3348 8.75 25.5473 8.88281 25.6498 9.09375L26.6971 11.25H29.3571C29.6911 11.25 29.9643 11.5312 29.9643 11.875C29.9643 12.2188 29.6911 12.5 29.3571 12.5H26.3214C26.09 12.5 25.8813 12.3672 25.7788 12.1563L25.1071 10.7734L23.2212 14.6563C23.1188 14.8672 22.9063 15 22.6786 15C22.4509 15 22.2384 14.8672 22.1359 14.6563L21.0886 12.5H17.2143V17.5C17.2143 18.8789 18.3033 20 19.6429 20H29.3571C30.6967 20 31.7857 18.8789 31.7857 17.5V6.25H26.9286C26.2569 6.25 25.7143 5.69141 25.7143 5V0H19.6429ZM26.9286 0V5H31.7857L26.9286 0Z" fill="#958070"/>
    </svg>
    