<svg xmlns="http://www.w3.org/2000/svg" width="14" height="11" viewBox="0 0 14 11" fill="none">
    <g clip-path="url(#clip0_5257_434)">
      <path fill-rule="evenodd" clip-rule="evenodd" d="M12.1847 1.75878C12.5312 1.48683 12.9862 1.44406 13.3729 1.64694C13.7597 1.84922 14 2.25683 14 2.70967V8.20111C14 8.646 13.8034 9.08844 13.4359 9.31089C13.2563 9.41967 13.0597 9.47283 12.8642 9.47283C12.6239 9.47283 12.3865 9.39156 12.1847 9.23389L11.0518 8.10883C10.8331 9.7405 9.492 11 7.875 11H3.20833C1.43908 11 0 9.49239 0 7.63889V3.36111C0 1.50761 1.43908 0 3.20833 0H7.875C9.49667 0 10.8407 1.26744 11.0536 2.90583L12.1847 1.75878Z" fill="#009DDD"/>
    </g>
    <defs>
      <clipPath id="clip0_5257_434">
        <rect width="14" height="11" fill="white"/>
      </clipPath>
    </defs>
  </svg>